<svg width="1920" height="240" viewBox="0 0 1920 240" fill="none" xmlns="http://www.w3.org/2000/svg">
<rect x="1800" y="6.10352e-05" width="30" height="30" fill="#FEC8DF"/>
<rect x="1830" y="6.10352e-05" width="30" height="30" fill="#F8EBF3"/>
<rect x="1800" y="30.0001" width="30" height="30" fill="#FEEBF1"/>
<rect x="1830" y="30.0001" width="30" height="30" fill="white"/>
<rect x="1860" y="6.10352e-05" width="30" height="30" fill="#FEC8DF"/>
<rect x="1890" y="6.10352e-05" width="30" height="30" fill="#F8EBF3"/>
<rect x="1860" y="30.0001" width="30" height="30" fill="#FEEBF1"/>
<rect x="1890" y="30.0001" width="30" height="30" fill="white"/>
<rect x="1800" y="60.0001" width="30" height="30" fill="#FEC8DF"/>
<rect x="1830" y="60.0001" width="30" height="30" fill="#F8EBF3"/>
<rect x="1800" y="90.0001" width="30" height="30" fill="#FEEBF1"/>
<rect x="1830" y="90.0001" width="30" height="30" fill="white"/>
<rect x="1860" y="60.0001" width="30" height="30" fill="#FEC8DF"/>
<rect x="1890" y="60.0001" width="30" height="30" fill="#F8EBF3"/>
<rect x="1860" y="90.0001" width="30" height="30" fill="#FEEBF1"/>
<rect x="1890" y="90.0001" width="30" height="30" fill="white"/>
<rect x="1680" y="6.10352e-05" width="30" height="30" fill="#FEC8DF"/>
<rect x="1710" y="6.10352e-05" width="30" height="30" fill="#F8EBF3"/>
<rect x="1680" y="30.0001" width="30" height="30" fill="#FEEBF1"/>
<rect x="1710" y="30.0001" width="30" height="30" fill="white"/>
<rect x="1740" y="6.10352e-05" width="30" height="30" fill="#FEC8DF"/>
<rect x="1770" y="6.10352e-05" width="30" height="30" fill="#F8EBF3"/>
<rect x="1740" y="30.0001" width="30" height="30" fill="#FEEBF1"/>
<rect x="1770" y="30.0001" width="30" height="30" fill="white"/>
<rect x="1680" y="60.0001" width="30" height="30" fill="#FEC8DF"/>
<rect x="1710" y="60.0001" width="30" height="30" fill="#F8EBF3"/>
<rect x="1680" y="90.0001" width="30" height="30" fill="#FEEBF1"/>
<rect x="1710" y="90.0001" width="30" height="30" fill="white"/>
<rect x="1740" y="60.0001" width="30" height="30" fill="#FEC8DF"/>
<rect x="1770" y="60.0001" width="30" height="30" fill="#F8EBF3"/>
<rect x="1740" y="90.0001" width="30" height="30" fill="#FEEBF1"/>
<rect x="1770" y="90.0001" width="30" height="30" fill="white"/>
<rect x="1800" y="120" width="30" height="30" fill="#FEC8DF"/>
<rect x="1830" y="120" width="30" height="30" fill="#F8EBF3"/>
<rect x="1800" y="150" width="30" height="30" fill="#FEEBF1"/>
<rect x="1830" y="150" width="30" height="30" fill="white"/>
<rect x="1860" y="120" width="30" height="30" fill="#FEC8DF"/>
<rect x="1890" y="120" width="30" height="30" fill="#F8EBF3"/>
<rect x="1860" y="150" width="30" height="30" fill="#FEEBF1"/>
<rect x="1890" y="150" width="30" height="30" fill="white"/>
<rect x="1800" y="180" width="30" height="30" fill="#FEC8DF"/>
<rect x="1830" y="180" width="30" height="30" fill="#F8EBF3"/>
<rect x="1800" y="210" width="30" height="30" fill="#FEEBF1"/>
<rect x="1830" y="210" width="30" height="30" fill="white"/>
<rect x="1860" y="180" width="30" height="30" fill="#FEC8DF"/>
<rect x="1890" y="180" width="30" height="30" fill="#F8EBF3"/>
<rect x="1860" y="210" width="30" height="30" fill="#FEEBF1"/>
<rect x="1890" y="210" width="30" height="30" fill="white"/>
<rect x="1680" y="120" width="30" height="30" fill="#FEC8DF"/>
<rect x="1710" y="120" width="30" height="30" fill="#F8EBF3"/>
<rect x="1680" y="150" width="30" height="30" fill="#FEEBF1"/>
<rect x="1710" y="150" width="30" height="30" fill="white"/>
<rect x="1740" y="120" width="30" height="30" fill="#FEC8DF"/>
<rect x="1770" y="120" width="30" height="30" fill="#F8EBF3"/>
<rect x="1740" y="150" width="30" height="30" fill="#FEEBF1"/>
<rect x="1770" y="150" width="30" height="30" fill="white"/>
<rect x="1680" y="180" width="30" height="30" fill="#FEC8DF"/>
<rect x="1710" y="180" width="30" height="30" fill="#F8EBF3"/>
<rect x="1680" y="210" width="30" height="30" fill="#FEEBF1"/>
<rect x="1710" y="210" width="30" height="30" fill="white"/>
<rect x="1740" y="180" width="30" height="30" fill="#FEC8DF"/>
<rect x="1770" y="180" width="30" height="30" fill="#F8EBF3"/>
<rect x="1740" y="210" width="30" height="30" fill="#FEEBF1"/>
<rect x="1770" y="210" width="30" height="30" fill="white"/>
<rect x="840" width="30" height="30" fill="#FEC8DF"/>
<rect x="870" width="30" height="30" fill="#F8EBF3"/>
<rect x="840" y="30" width="30" height="30" fill="#FEEBF1"/>
<rect x="870" y="30" width="30" height="30" fill="white"/>
<rect x="900" width="30" height="30" fill="#FEC8DF"/>
<rect x="930" width="30" height="30" fill="#F8EBF3"/>
<rect x="900" y="30" width="30" height="30" fill="#FEEBF1"/>
<rect x="930" y="30" width="30" height="30" fill="white"/>
<rect x="840" y="60" width="30" height="30" fill="#FEC8DF"/>
<rect x="870" y="60" width="30" height="30" fill="#F8EBF3"/>
<rect x="840" y="90" width="30" height="30" fill="#FEEBF1"/>
<rect x="870" y="90" width="30" height="30" fill="white"/>
<rect x="900" y="60" width="30" height="30" fill="#FEC8DF"/>
<rect x="930" y="60" width="30" height="30" fill="#F8EBF3"/>
<rect x="900" y="90" width="30" height="30" fill="#FEEBF1"/>
<rect x="930" y="90" width="30" height="30" fill="white"/>
<rect x="720" width="30" height="30" fill="#FEC8DF"/>
<rect x="750" width="30" height="30" fill="#F8EBF3"/>
<rect x="720" y="30" width="30" height="30" fill="#FEEBF1"/>
<rect x="750" y="30" width="30" height="30" fill="white"/>
<rect x="780" width="30" height="30" fill="#FEC8DF"/>
<rect x="810" width="30" height="30" fill="#F8EBF3"/>
<rect x="780" y="30" width="30" height="30" fill="#FEEBF1"/>
<rect x="810" y="30" width="30" height="30" fill="white"/>
<rect x="720" y="60" width="30" height="30" fill="#FEC8DF"/>
<rect x="750" y="60" width="30" height="30" fill="#F8EBF3"/>
<rect x="720" y="90" width="30" height="30" fill="#FEEBF1"/>
<rect x="750" y="90" width="30" height="30" fill="white"/>
<rect x="780" y="60" width="30" height="30" fill="#FEC8DF"/>
<rect x="810" y="60" width="30" height="30" fill="#F8EBF3"/>
<rect x="780" y="90" width="30" height="30" fill="#FEEBF1"/>
<rect x="810" y="90" width="30" height="30" fill="white"/>
<rect x="840" y="120" width="30" height="30" fill="#FEC8DF"/>
<rect x="870" y="120" width="30" height="30" fill="#F8EBF3"/>
<rect x="840" y="150" width="30" height="30" fill="#FEEBF1"/>
<rect x="870" y="150" width="30" height="30" fill="white"/>
<rect x="900" y="120" width="30" height="30" fill="#FEC8DF"/>
<rect x="930" y="120" width="30" height="30" fill="#F8EBF3"/>
<rect x="900" y="150" width="30" height="30" fill="#FEEBF1"/>
<rect x="930" y="150" width="30" height="30" fill="white"/>
<rect x="840" y="180" width="30" height="30" fill="#FEC8DF"/>
<rect x="870" y="180" width="30" height="30" fill="#F8EBF3"/>
<rect x="840" y="210" width="30" height="30" fill="#FEEBF1"/>
<rect x="870" y="210" width="30" height="30" fill="white"/>
<rect x="900" y="180" width="30" height="30" fill="#FEC8DF"/>
<rect x="930" y="180" width="30" height="30" fill="#F8EBF3"/>
<rect x="900" y="210" width="30" height="30" fill="#FEEBF1"/>
<rect x="930" y="210" width="30" height="30" fill="white"/>
<rect x="720" y="120" width="30" height="30" fill="#FEC8DF"/>
<rect x="750" y="120" width="30" height="30" fill="#F8EBF3"/>
<rect x="720" y="150" width="30" height="30" fill="#FEEBF1"/>
<rect x="750" y="150" width="30" height="30" fill="white"/>
<rect x="780" y="120" width="30" height="30" fill="#FEC8DF"/>
<rect x="810" y="120" width="30" height="30" fill="#F8EBF3"/>
<rect x="780" y="150" width="30" height="30" fill="#FEEBF1"/>
<rect x="810" y="150" width="30" height="30" fill="white"/>
<rect x="720" y="180" width="30" height="30" fill="#FEC8DF"/>
<rect x="750" y="180" width="30" height="30" fill="#F8EBF3"/>
<rect x="720" y="210" width="30" height="30" fill="#FEEBF1"/>
<rect x="750" y="210" width="30" height="30" fill="white"/>
<rect x="780" y="180" width="30" height="30" fill="#FEC8DF"/>
<rect x="810" y="180" width="30" height="30" fill="#F8EBF3"/>
<rect x="780" y="210" width="30" height="30" fill="#FEEBF1"/>
<rect x="810" y="210" width="30" height="30" fill="white"/>
<rect x="1560" y="6.10352e-05" width="30" height="30" fill="#FEC8DF"/>
<rect x="1590" y="6.10352e-05" width="30" height="30" fill="#F8EBF3"/>
<rect x="1560" y="30.0001" width="30" height="30" fill="#FEEBF1"/>
<rect x="1590" y="30.0001" width="30" height="30" fill="white"/>
<rect x="1620" y="6.10352e-05" width="30" height="30" fill="#FEC8DF"/>
<rect x="1650" y="6.10352e-05" width="30" height="30" fill="#F8EBF3"/>
<rect x="1620" y="30.0001" width="30" height="30" fill="#FEEBF1"/>
<rect x="1650" y="30.0001" width="30" height="30" fill="white"/>
<rect x="1560" y="60.0001" width="30" height="30" fill="#FEC8DF"/>
<rect x="1590" y="60.0001" width="30" height="30" fill="#F8EBF3"/>
<rect x="1560" y="90.0001" width="30" height="30" fill="#FEEBF1"/>
<rect x="1590" y="90.0001" width="30" height="30" fill="white"/>
<rect x="1620" y="60.0001" width="30" height="30" fill="#FEC8DF"/>
<rect x="1650" y="60.0001" width="30" height="30" fill="#F8EBF3"/>
<rect x="1620" y="90.0001" width="30" height="30" fill="#FEEBF1"/>
<rect x="1650" y="90.0001" width="30" height="30" fill="white"/>
<rect x="1440" y="6.10352e-05" width="30" height="30" fill="#FEC8DF"/>
<rect x="1470" y="6.10352e-05" width="30" height="30" fill="#F8EBF3"/>
<rect x="1440" y="30.0001" width="30" height="30" fill="#FEEBF1"/>
<rect x="1470" y="30.0001" width="30" height="30" fill="white"/>
<rect x="1500" y="6.10352e-05" width="30" height="30" fill="#FEC8DF"/>
<rect x="1530" y="6.10352e-05" width="30" height="30" fill="#F8EBF3"/>
<rect x="1500" y="30.0001" width="30" height="30" fill="#FEEBF1"/>
<rect x="1530" y="30.0001" width="30" height="30" fill="white"/>
<rect x="1440" y="60.0001" width="30" height="30" fill="#FEC8DF"/>
<rect x="1470" y="60.0001" width="30" height="30" fill="#F8EBF3"/>
<rect x="1440" y="90.0001" width="30" height="30" fill="#FEEBF1"/>
<rect x="1470" y="90.0001" width="30" height="30" fill="white"/>
<rect x="1500" y="60.0001" width="30" height="30" fill="#FEC8DF"/>
<rect x="1530" y="60.0001" width="30" height="30" fill="#F8EBF3"/>
<rect x="1500" y="90.0001" width="30" height="30" fill="#FEEBF1"/>
<rect x="1530" y="90.0001" width="30" height="30" fill="white"/>
<rect x="1560" y="120" width="30" height="30" fill="#FEC8DF"/>
<rect x="1590" y="120" width="30" height="30" fill="#F8EBF3"/>
<rect x="1560" y="150" width="30" height="30" fill="#FEEBF1"/>
<rect x="1590" y="150" width="30" height="30" fill="white"/>
<rect x="1620" y="120" width="30" height="30" fill="#FEC8DF"/>
<rect x="1650" y="120" width="30" height="30" fill="#F8EBF3"/>
<rect x="1620" y="150" width="30" height="30" fill="#FEEBF1"/>
<rect x="1650" y="150" width="30" height="30" fill="white"/>
<rect x="1560" y="180" width="30" height="30" fill="#FEC8DF"/>
<rect x="1590" y="180" width="30" height="30" fill="#F8EBF3"/>
<rect x="1560" y="210" width="30" height="30" fill="#FEEBF1"/>
<rect x="1590" y="210" width="30" height="30" fill="white"/>
<rect x="1620" y="180" width="30" height="30" fill="#FEC8DF"/>
<rect x="1650" y="180" width="30" height="30" fill="#F8EBF3"/>
<rect x="1620" y="210" width="30" height="30" fill="#FEEBF1"/>
<rect x="1650" y="210" width="30" height="30" fill="white"/>
<rect x="1440" y="120" width="30" height="30" fill="#FEC8DF"/>
<rect x="1470" y="120" width="30" height="30" fill="#F8EBF3"/>
<rect x="1440" y="150" width="30" height="30" fill="#FEEBF1"/>
<rect x="1470" y="150" width="30" height="30" fill="white"/>
<rect x="1500" y="120" width="30" height="30" fill="#FEC8DF"/>
<rect x="1530" y="120" width="30" height="30" fill="#F8EBF3"/>
<rect x="1500" y="150" width="30" height="30" fill="#FEEBF1"/>
<rect x="1530" y="150" width="30" height="30" fill="white"/>
<rect x="1440" y="180" width="30" height="30" fill="#FEC8DF"/>
<rect x="1470" y="180" width="30" height="30" fill="#F8EBF3"/>
<rect x="1440" y="210" width="30" height="30" fill="#FEEBF1"/>
<rect x="1470" y="210" width="30" height="30" fill="white"/>
<rect x="1500" y="180" width="30" height="30" fill="#FEC8DF"/>
<rect x="1530" y="180" width="30" height="30" fill="#F8EBF3"/>
<rect x="1500" y="210" width="30" height="30" fill="#FEEBF1"/>
<rect x="1530" y="210" width="30" height="30" fill="white"/>
<rect x="600" width="30" height="30" fill="#FEC8DF"/>
<rect x="630" width="30" height="30" fill="#F8EBF3"/>
<rect x="600" y="30" width="30" height="30" fill="#FEEBF1"/>
<rect x="630" y="30" width="30" height="30" fill="white"/>
<rect x="660" width="30" height="30" fill="#FEC8DF"/>
<rect x="690" width="30" height="30" fill="#F8EBF3"/>
<rect x="660" y="30" width="30" height="30" fill="#FEEBF1"/>
<rect x="690" y="30" width="30" height="30" fill="white"/>
<rect x="600" y="60" width="30" height="30" fill="#FEC8DF"/>
<rect x="630" y="60" width="30" height="30" fill="#F8EBF3"/>
<rect x="600" y="90" width="30" height="30" fill="#FEEBF1"/>
<rect x="630" y="90" width="30" height="30" fill="white"/>
<rect x="660" y="60" width="30" height="30" fill="#FEC8DF"/>
<rect x="690" y="60" width="30" height="30" fill="#F8EBF3"/>
<rect x="660" y="90" width="30" height="30" fill="#FEEBF1"/>
<rect x="690" y="90" width="30" height="30" fill="white"/>
<rect x="480" width="30" height="30" fill="#FEC8DF"/>
<rect x="510" width="30" height="30" fill="#F8EBF3"/>
<rect x="480" y="30" width="30" height="30" fill="#FEEBF1"/>
<rect x="510" y="30" width="30" height="30" fill="white"/>
<rect x="540" width="30" height="30" fill="#FEC8DF"/>
<rect x="570" width="30" height="30" fill="#F8EBF3"/>
<rect x="540" y="30" width="30" height="30" fill="#FEEBF1"/>
<rect x="570" y="30" width="30" height="30" fill="white"/>
<rect x="480" y="60" width="30" height="30" fill="#FEC8DF"/>
<rect x="510" y="60" width="30" height="30" fill="#F8EBF3"/>
<rect x="480" y="90" width="30" height="30" fill="#FEEBF1"/>
<rect x="510" y="90" width="30" height="30" fill="white"/>
<rect x="540" y="60" width="30" height="30" fill="#FEC8DF"/>
<rect x="570" y="60" width="30" height="30" fill="#F8EBF3"/>
<rect x="540" y="90" width="30" height="30" fill="#FEEBF1"/>
<rect x="570" y="90" width="30" height="30" fill="white"/>
<rect x="600" y="120" width="30" height="30" fill="#FEC8DF"/>
<rect x="630" y="120" width="30" height="30" fill="#F8EBF3"/>
<rect x="600" y="150" width="30" height="30" fill="#FEEBF1"/>
<rect x="630" y="150" width="30" height="30" fill="white"/>
<rect x="660" y="120" width="30" height="30" fill="#FEC8DF"/>
<rect x="690" y="120" width="30" height="30" fill="#F8EBF3"/>
<rect x="660" y="150" width="30" height="30" fill="#FEEBF1"/>
<rect x="690" y="150" width="30" height="30" fill="white"/>
<rect x="600" y="180" width="30" height="30" fill="#FEC8DF"/>
<rect x="630" y="180" width="30" height="30" fill="#F8EBF3"/>
<rect x="600" y="210" width="30" height="30" fill="#FEEBF1"/>
<rect x="630" y="210" width="30" height="30" fill="white"/>
<rect x="660" y="180" width="30" height="30" fill="#FEC8DF"/>
<rect x="690" y="180" width="30" height="30" fill="#F8EBF3"/>
<rect x="660" y="210" width="30" height="30" fill="#FEEBF1"/>
<rect x="690" y="210" width="30" height="30" fill="white"/>
<rect x="480" y="120" width="30" height="30" fill="#FEC8DF"/>
<rect x="510" y="120" width="30" height="30" fill="#F8EBF3"/>
<rect x="480" y="150" width="30" height="30" fill="#FEEBF1"/>
<rect x="510" y="150" width="30" height="30" fill="white"/>
<rect x="540" y="120" width="30" height="30" fill="#FEC8DF"/>
<rect x="570" y="120" width="30" height="30" fill="#F8EBF3"/>
<rect x="540" y="150" width="30" height="30" fill="#FEEBF1"/>
<rect x="570" y="150" width="30" height="30" fill="white"/>
<rect x="480" y="180" width="30" height="30" fill="#FEC8DF"/>
<rect x="510" y="180" width="30" height="30" fill="#F8EBF3"/>
<rect x="480" y="210" width="30" height="30" fill="#FEEBF1"/>
<rect x="510" y="210" width="30" height="30" fill="white"/>
<rect x="540" y="180" width="30" height="30" fill="#FEC8DF"/>
<rect x="570" y="180" width="30" height="30" fill="#F8EBF3"/>
<rect x="540" y="210" width="30" height="30" fill="#FEEBF1"/>
<rect x="570" y="210" width="30" height="30" fill="white"/>
<rect x="1320" y="6.10352e-05" width="30" height="30" fill="#FEC8DF"/>
<rect x="1350" y="6.10352e-05" width="30" height="30" fill="#F8EBF3"/>
<rect x="1320" y="30.0001" width="30" height="30" fill="#FEEBF1"/>
<rect x="1350" y="30.0001" width="30" height="30" fill="white"/>
<rect x="1380" y="6.10352e-05" width="30" height="30" fill="#FEC8DF"/>
<rect x="1410" y="6.10352e-05" width="30" height="30" fill="#F8EBF3"/>
<rect x="1380" y="30.0001" width="30" height="30" fill="#FEEBF1"/>
<rect x="1410" y="30.0001" width="30" height="30" fill="white"/>
<rect x="1320" y="60.0001" width="30" height="30" fill="#FEC8DF"/>
<rect x="1350" y="60.0001" width="30" height="30" fill="#F8EBF3"/>
<rect x="1320" y="90.0001" width="30" height="30" fill="#FEEBF1"/>
<rect x="1350" y="90.0001" width="30" height="30" fill="white"/>
<rect x="1380" y="60.0001" width="30" height="30" fill="#FEC8DF"/>
<rect x="1410" y="60.0001" width="30" height="30" fill="#F8EBF3"/>
<rect x="1380" y="90.0001" width="30" height="30" fill="#FEEBF1"/>
<rect x="1410" y="90.0001" width="30" height="30" fill="white"/>
<rect x="1200" y="6.10352e-05" width="30" height="30" fill="#FEC8DF"/>
<rect x="1230" y="6.10352e-05" width="30" height="30" fill="#F8EBF3"/>
<rect x="1200" y="30.0001" width="30" height="30" fill="#FEEBF1"/>
<rect x="1230" y="30.0001" width="30" height="30" fill="white"/>
<rect x="1260" y="6.10352e-05" width="30" height="30" fill="#FEC8DF"/>
<rect x="1290" y="6.10352e-05" width="30" height="30" fill="#F8EBF3"/>
<rect x="1260" y="30.0001" width="30" height="30" fill="#FEEBF1"/>
<rect x="1290" y="30.0001" width="30" height="30" fill="white"/>
<rect x="1200" y="60" width="30" height="30" fill="#FEC8DF"/>
<rect x="1230" y="60.0001" width="30" height="30" fill="#F8EBF3"/>
<rect x="1200" y="90" width="30" height="30" fill="#FEEBF1"/>
<rect x="1230" y="90.0001" width="30" height="30" fill="white"/>
<rect x="1260" y="60.0001" width="30" height="30" fill="#FEC8DF"/>
<rect x="1290" y="60.0001" width="30" height="30" fill="#F8EBF3"/>
<rect x="1260" y="90.0001" width="30" height="30" fill="#FEEBF1"/>
<rect x="1290" y="90.0001" width="30" height="30" fill="white"/>
<rect x="1320" y="120" width="30" height="30" fill="#FEC8DF"/>
<rect x="1350" y="120" width="30" height="30" fill="#F8EBF3"/>
<rect x="1320" y="150" width="30" height="30" fill="#FEEBF1"/>
<rect x="1350" y="150" width="30" height="30" fill="white"/>
<rect x="1380" y="120" width="30" height="30" fill="#FEC8DF"/>
<rect x="1410" y="120" width="30" height="30" fill="#F8EBF3"/>
<rect x="1380" y="150" width="30" height="30" fill="#FEEBF1"/>
<rect x="1410" y="150" width="30" height="30" fill="white"/>
<rect x="1320" y="180" width="30" height="30" fill="#FEC8DF"/>
<rect x="1350" y="180" width="30" height="30" fill="#F8EBF3"/>
<rect x="1320" y="210" width="30" height="30" fill="#FEEBF1"/>
<rect x="1350" y="210" width="30" height="30" fill="white"/>
<rect x="1380" y="180" width="30" height="30" fill="#FEC8DF"/>
<rect x="1410" y="180" width="30" height="30" fill="#F8EBF3"/>
<rect x="1380" y="210" width="30" height="30" fill="#FEEBF1"/>
<rect x="1410" y="210" width="30" height="30" fill="white"/>
<rect x="1200" y="120" width="30" height="30" fill="#FEC8DF"/>
<rect x="1230" y="120" width="30" height="30" fill="#F8EBF3"/>
<rect x="1200" y="150" width="30" height="30" fill="#FEEBF1"/>
<rect x="1230" y="150" width="30" height="30" fill="white"/>
<rect x="1260" y="120" width="30" height="30" fill="#FEC8DF"/>
<rect x="1290" y="120" width="30" height="30" fill="#F8EBF3"/>
<rect x="1260" y="150" width="30" height="30" fill="#FEEBF1"/>
<rect x="1290" y="150" width="30" height="30" fill="white"/>
<rect x="1200" y="180" width="30" height="30" fill="#FEC8DF"/>
<rect x="1230" y="180" width="30" height="30" fill="#F8EBF3"/>
<rect x="1200" y="210" width="30" height="30" fill="#FEEBF1"/>
<rect x="1230" y="210" width="30" height="30" fill="white"/>
<rect x="1260" y="180" width="30" height="30" fill="#FEC8DF"/>
<rect x="1290" y="180" width="30" height="30" fill="#F8EBF3"/>
<rect x="1260" y="210" width="30" height="30" fill="#FEEBF1"/>
<rect x="1290" y="210" width="30" height="30" fill="white"/>
<rect x="360" width="30" height="30" fill="#FEC8DF"/>
<rect x="390" width="30" height="30" fill="#F8EBF3"/>
<rect x="360" y="30" width="30" height="30" fill="#FEEBF1"/>
<rect x="390" y="30" width="30" height="30" fill="white"/>
<rect x="420" width="30" height="30" fill="#FEC8DF"/>
<rect x="450" width="30" height="30" fill="#F8EBF3"/>
<rect x="420" y="30" width="30" height="30" fill="#FEEBF1"/>
<rect x="450" y="30" width="30" height="30" fill="white"/>
<rect x="360" y="60" width="30" height="30" fill="#FEC8DF"/>
<rect x="390" y="60" width="30" height="30" fill="#F8EBF3"/>
<rect x="360" y="90" width="30" height="30" fill="#FEEBF1"/>
<rect x="390" y="90" width="30" height="30" fill="white"/>
<rect x="420" y="60" width="30" height="30" fill="#FEC8DF"/>
<rect x="450" y="60" width="30" height="30" fill="#F8EBF3"/>
<rect x="420" y="90" width="30" height="30" fill="#FEEBF1"/>
<rect x="450" y="90" width="30" height="30" fill="white"/>
<rect x="240" width="30" height="30" fill="#FEC8DF"/>
<rect x="270" width="30" height="30" fill="#F8EBF3"/>
<rect x="240" y="30" width="30" height="30" fill="#FEEBF1"/>
<rect x="270" y="30" width="30" height="30" fill="white"/>
<rect x="300" width="30" height="30" fill="#FEC8DF"/>
<rect x="330" width="30" height="30" fill="#F8EBF3"/>
<rect x="300" y="30" width="30" height="30" fill="#FEEBF1"/>
<rect x="330" y="30" width="30" height="30" fill="white"/>
<rect x="240" y="60" width="30" height="30" fill="#FEC8DF"/>
<rect x="270" y="60" width="30" height="30" fill="#F8EBF3"/>
<rect x="240" y="90" width="30" height="30" fill="#FEEBF1"/>
<rect x="270" y="90" width="30" height="30" fill="white"/>
<rect x="300" y="60" width="30" height="30" fill="#FEC8DF"/>
<rect x="330" y="60" width="30" height="30" fill="#F8EBF3"/>
<rect x="300" y="90" width="30" height="30" fill="#FEEBF1"/>
<rect x="330" y="90" width="30" height="30" fill="white"/>
<rect x="360" y="120" width="30" height="30" fill="#FEC8DF"/>
<rect x="390" y="120" width="30" height="30" fill="#F8EBF3"/>
<rect x="360" y="150" width="30" height="30" fill="#FEEBF1"/>
<rect x="390" y="150" width="30" height="30" fill="white"/>
<rect x="420" y="120" width="30" height="30" fill="#FEC8DF"/>
<rect x="450" y="120" width="30" height="30" fill="#F8EBF3"/>
<rect x="420" y="150" width="30" height="30" fill="#FEEBF1"/>
<rect x="450" y="150" width="30" height="30" fill="white"/>
<rect x="360" y="180" width="30" height="30" fill="#FEC8DF"/>
<rect x="390" y="180" width="30" height="30" fill="#F8EBF3"/>
<rect x="360" y="210" width="30" height="30" fill="#FEEBF1"/>
<rect x="390" y="210" width="30" height="30" fill="white"/>
<rect x="420" y="180" width="30" height="30" fill="#FEC8DF"/>
<rect x="450" y="180" width="30" height="30" fill="#F8EBF3"/>
<rect x="420" y="210" width="30" height="30" fill="#FEEBF1"/>
<rect x="450" y="210" width="30" height="30" fill="white"/>
<rect x="240" y="120" width="30" height="30" fill="#FEC8DF"/>
<rect x="270" y="120" width="30" height="30" fill="#F8EBF3"/>
<rect x="240" y="150" width="30" height="30" fill="#FEEBF1"/>
<rect x="270" y="150" width="30" height="30" fill="white"/>
<rect x="300" y="120" width="30" height="30" fill="#FEC8DF"/>
<rect x="330" y="120" width="30" height="30" fill="#F8EBF3"/>
<rect x="300" y="150" width="30" height="30" fill="#FEEBF1"/>
<rect x="330" y="150" width="30" height="30" fill="white"/>
<rect x="240" y="180" width="30" height="30" fill="#FEC8DF"/>
<rect x="270" y="180" width="30" height="30" fill="#F8EBF3"/>
<rect x="240" y="210" width="30" height="30" fill="#FEEBF1"/>
<rect x="270" y="210" width="30" height="30" fill="white"/>
<rect x="300" y="180" width="30" height="30" fill="#FEC8DF"/>
<rect x="330" y="180" width="30" height="30" fill="#F8EBF3"/>
<rect x="300" y="210" width="30" height="30" fill="#FEEBF1"/>
<rect x="330" y="210" width="30" height="30" fill="white"/>
<rect x="1080" width="30" height="30" fill="#FEC8DF"/>
<rect x="1110" width="30" height="30" fill="#F8EBF3"/>
<rect x="1080" y="30" width="30" height="30" fill="#FEEBF1"/>
<rect x="1110" y="30" width="30" height="30" fill="white"/>
<rect x="1140" width="30" height="30" fill="#FEC8DF"/>
<rect x="1170" width="30" height="30" fill="#F8EBF3"/>
<rect x="1140" y="30" width="30" height="30" fill="#FEEBF1"/>
<rect x="1170" y="30" width="30" height="30" fill="white"/>
<rect x="1080" y="60" width="30" height="30" fill="#FEC8DF"/>
<rect x="1110" y="60" width="30" height="30" fill="#F8EBF3"/>
<rect x="1080" y="90" width="30" height="30" fill="#FEEBF1"/>
<rect x="1110" y="90" width="30" height="30" fill="white"/>
<rect x="1140" y="60" width="30" height="30" fill="#FEC8DF"/>
<rect x="1170" y="60" width="30" height="30" fill="#F8EBF3"/>
<rect x="1140" y="90" width="30" height="30" fill="#FEEBF1"/>
<rect x="1170" y="90" width="30" height="30" fill="white"/>
<rect x="960" width="30" height="30" fill="#FEC8DF"/>
<rect x="990" width="30" height="30" fill="#F8EBF3"/>
<rect x="960" y="30" width="30" height="30" fill="#FEEBF1"/>
<rect x="990" y="30" width="30" height="30" fill="white"/>
<rect x="1020" width="30" height="30" fill="#FEC8DF"/>
<rect x="1050" width="30" height="30" fill="#F8EBF3"/>
<rect x="1020" y="30" width="30" height="30" fill="#FEEBF1"/>
<rect x="1050" y="30" width="30" height="30" fill="white"/>
<rect x="960" y="60" width="30" height="30" fill="#FEC8DF"/>
<rect x="990" y="60" width="30" height="30" fill="#F8EBF3"/>
<rect x="960" y="90" width="30" height="30" fill="#FEEBF1"/>
<rect x="990" y="90" width="30" height="30" fill="white"/>
<rect x="1020" y="60" width="30" height="30" fill="#FEC8DF"/>
<rect x="1050" y="60" width="30" height="30" fill="#F8EBF3"/>
<rect x="1020" y="90" width="30" height="30" fill="#FEEBF1"/>
<rect x="1050" y="90" width="30" height="30" fill="white"/>
<rect x="1080" y="120" width="30" height="30" fill="#FEC8DF"/>
<rect x="1110" y="120" width="30" height="30" fill="#F8EBF3"/>
<rect x="1080" y="150" width="30" height="30" fill="#FEEBF1"/>
<rect x="1110" y="150" width="30" height="30" fill="white"/>
<rect x="1140" y="120" width="30" height="30" fill="#FEC8DF"/>
<rect x="1170" y="120" width="30" height="30" fill="#F8EBF3"/>
<rect x="1140" y="150" width="30" height="30" fill="#FEEBF1"/>
<rect x="1170" y="150" width="30" height="30" fill="white"/>
<rect x="1080" y="180" width="30" height="30" fill="#FEC8DF"/>
<rect x="1110" y="180" width="30" height="30" fill="#F8EBF3"/>
<rect x="1080" y="210" width="30" height="30" fill="#FEEBF1"/>
<rect x="1110" y="210" width="30" height="30" fill="white"/>
<rect x="1140" y="180" width="30" height="30" fill="#FEC8DF"/>
<rect x="1170" y="180" width="30" height="30" fill="#F8EBF3"/>
<rect x="1140" y="210" width="30" height="30" fill="#FEEBF1"/>
<rect x="1170" y="210" width="30" height="30" fill="white"/>
<rect x="960" y="120" width="30" height="30" fill="#FEC8DF"/>
<rect x="990" y="120" width="30" height="30" fill="#F8EBF3"/>
<rect x="960" y="150" width="30" height="30" fill="#FEEBF1"/>
<rect x="990" y="150" width="30" height="30" fill="white"/>
<rect x="1020" y="120" width="30" height="30" fill="#FEC8DF"/>
<rect x="1050" y="120" width="30" height="30" fill="#F8EBF3"/>
<rect x="1020" y="150" width="30" height="30" fill="#FEEBF1"/>
<rect x="1050" y="150" width="30" height="30" fill="white"/>
<rect x="960" y="180" width="30" height="30" fill="#FEC8DF"/>
<rect x="990" y="180" width="30" height="30" fill="#F8EBF3"/>
<rect x="960" y="210" width="30" height="30" fill="#FEEBF1"/>
<rect x="990" y="210" width="30" height="30" fill="white"/>
<rect x="1020" y="180" width="30" height="30" fill="#FEC8DF"/>
<rect x="1050" y="180" width="30" height="30" fill="#F8EBF3"/>
<rect x="1020" y="210" width="30" height="30" fill="#FEEBF1"/>
<rect x="1050" y="210" width="30" height="30" fill="white"/>
<rect x="120" width="30" height="30" fill="#FEC8DF"/>
<rect x="150" width="30" height="30" fill="#F8EBF3"/>
<rect x="120" y="30" width="30" height="30" fill="#FEEBF1"/>
<rect x="150" y="30" width="30" height="30" fill="white"/>
<rect x="180" width="30" height="30" fill="#FEC8DF"/>
<rect x="210" width="30" height="30" fill="#F8EBF3"/>
<rect x="180" y="30" width="30" height="30" fill="#FEEBF1"/>
<rect x="210" y="30" width="30" height="30" fill="white"/>
<rect x="120" y="60" width="30" height="30" fill="#FEC8DF"/>
<rect x="150" y="60" width="30" height="30" fill="#F8EBF3"/>
<rect x="120" y="90" width="30" height="30" fill="#FEEBF1"/>
<rect x="150" y="90" width="30" height="30" fill="white"/>
<rect x="180" y="60" width="30" height="30" fill="#FEC8DF"/>
<rect x="210" y="60" width="30" height="30" fill="#F8EBF3"/>
<rect x="180" y="90" width="30" height="30" fill="#FEEBF1"/>
<rect x="210" y="90" width="30" height="30" fill="white"/>
<rect width="30" height="30" fill="#FEC8DF"/>
<rect x="30" width="30" height="30" fill="#F8EBF3"/>
<rect y="30" width="30" height="30" fill="#FEEBF1"/>
<rect x="30" y="30" width="30" height="30" fill="white"/>
<rect x="60" width="30" height="30" fill="#FEC8DF"/>
<rect x="90" width="30" height="30" fill="#F8EBF3"/>
<rect x="60" y="30" width="30" height="30" fill="#FEEBF1"/>
<rect x="90" y="30" width="30" height="30" fill="white"/>
<rect y="60" width="30" height="30" fill="#FEC8DF"/>
<rect x="30" y="60" width="30" height="30" fill="#F8EBF3"/>
<rect y="90" width="30" height="30" fill="#FEEBF1"/>
<rect x="30" y="90" width="30" height="30" fill="white"/>
<rect x="60" y="60" width="30" height="30" fill="#FEC8DF"/>
<rect x="90" y="60" width="30" height="30" fill="#F8EBF3"/>
<rect x="60" y="90" width="30" height="30" fill="#FEEBF1"/>
<rect x="90" y="90" width="30" height="30" fill="white"/>
<rect x="120" y="120" width="30" height="30" fill="#FEC8DF"/>
<rect x="150" y="120" width="30" height="30" fill="#F8EBF3"/>
<rect x="120" y="150" width="30" height="30" fill="#FEEBF1"/>
<rect x="150" y="150" width="30" height="30" fill="white"/>
<rect x="180" y="120" width="30" height="30" fill="#FEC8DF"/>
<rect x="210" y="120" width="30" height="30" fill="#F8EBF3"/>
<rect x="180" y="150" width="30" height="30" fill="#FEEBF1"/>
<rect x="210" y="150" width="30" height="30" fill="white"/>
<rect x="120" y="180" width="30" height="30" fill="#FEC8DF"/>
<rect x="150" y="180" width="30" height="30" fill="#F8EBF3"/>
<rect x="120" y="210" width="30" height="30" fill="#FEEBF1"/>
<rect x="150" y="210" width="30" height="30" fill="white"/>
<rect x="180" y="180" width="30" height="30" fill="#FEC8DF"/>
<rect x="210" y="180" width="30" height="30" fill="#F8EBF3"/>
<rect x="180" y="210" width="30" height="30" fill="#FEEBF1"/>
<rect x="210" y="210" width="30" height="30" fill="white"/>
<rect y="120" width="30" height="30" fill="#FEC8DF"/>
<rect x="30" y="120" width="30" height="30" fill="#F8EBF3"/>
<rect y="150" width="30" height="30" fill="#FEEBF1"/>
<rect x="30" y="150" width="30" height="30" fill="white"/>
<rect x="60" y="120" width="30" height="30" fill="#FEC8DF"/>
<rect x="90" y="120" width="30" height="30" fill="#F8EBF3"/>
<rect x="60" y="150" width="30" height="30" fill="#FEEBF1"/>
<rect x="90" y="150" width="30" height="30" fill="white"/>
<rect y="180" width="30" height="30" fill="#FEC8DF"/>
<rect x="30" y="180" width="30" height="30" fill="#F8EBF3"/>
<rect y="210" width="30" height="30" fill="#FEEBF1"/>
<rect x="30" y="210" width="30" height="30" fill="white"/>
<rect x="60" y="180" width="30" height="30" fill="#FEC8DF"/>
<rect x="90" y="180" width="30" height="30" fill="#F8EBF3"/>
<rect x="60" y="210" width="30" height="30" fill="#FEEBF1"/>
<rect x="90" y="210" width="30" height="30" fill="white"/>
</svg>
