<svg width="616" height="389" viewBox="0 0 616 389" fill="none" xmlns="http://www.w3.org/2000/svg">
<g clip-path="url(#clip0_103_3561)">
<path d="M233.455 61.248C233.03 61.7944 232.444 62.1929 231.779 62.3864C231.114 62.58 230.404 62.5586 229.752 62.3255C229.554 62.2668 229.359 62.196 229.17 62.1133C229.384 59.8277 229.278 57.5235 228.854 55.2672C228.688 57.2066 228.213 59.1072 227.447 60.8972C226.823 60.272 226.311 59.5435 225.936 58.744C225.238 57.0897 224.774 55.3457 224.56 53.563C223.527 47.4892 222.507 41.1705 224.193 35.2348C226.664 26.5639 234.457 20.3305 237.711 11.9177L239.315 10.4807C242.059 15.1468 242.181 20.9451 241.062 26.2362C239.949 31.5378 237.706 36.5136 235.933 41.6263C234.16 46.7389 232.832 52.1773 233.655 57.5271C233.844 58.7868 234.132 60.1713 233.455 61.248Z" fill="#2F2E41"/>
<path d="M197.819 134.617L187.37 182.329L233.011 197.17L226.3 134.617H197.819Z" fill="#FFB6B6"/>
<path d="M519.892 387.829H540.574V293.169C540.546 268.739 530.813 245.319 513.51 228.044C496.207 210.77 472.747 201.053 448.277 201.026H256.063C231.592 201.053 208.132 210.77 190.829 228.044C173.526 245.319 163.793 268.739 163.766 293.169V387.829H184.448V323.16C184.475 298.504 194.299 274.865 211.763 257.43C229.227 239.995 252.905 230.188 277.603 230.16H426.736C451.434 230.188 475.112 239.995 492.576 257.43C510.04 274.865 519.864 298.504 519.892 323.16V387.829Z" fill="#FFCAE9"/>
<path d="M417.02 131.216H373.24C372.621 131.217 372.027 131.464 371.59 131.901C371.153 132.339 370.907 132.932 370.908 133.551V202.594H419.358V133.551C419.359 133.244 419.298 132.941 419.181 132.657C419.063 132.374 418.891 132.117 418.674 131.9C418.457 131.683 418.199 131.511 417.915 131.394C417.631 131.276 417.327 131.216 417.02 131.216ZM395.277 170.446C393.908 170.44 392.597 169.894 391.629 168.927C390.661 167.961 390.114 166.652 390.108 165.285V157.321C390.109 155.954 390.655 154.643 391.624 153.676C392.593 152.71 393.907 152.167 395.277 152.167C396.647 152.167 397.961 152.71 398.93 153.676C399.9 154.643 400.445 155.954 400.447 157.321V165.285C400.441 166.652 399.894 167.961 398.926 168.927C397.958 169.894 396.646 170.44 395.277 170.446Z" fill="#3F3D56"/>
<path d="M489.515 23.4664H302.374C300.766 23.469 299.225 24.1077 298.088 25.2427C296.951 26.3777 296.311 27.9164 296.308 29.5215V155.594C296.31 157.199 296.95 158.739 298.087 159.874C299.224 161.009 300.766 161.648 302.374 161.649H489.515C491.124 161.648 492.665 161.009 493.802 159.874C494.94 158.739 495.579 157.199 495.581 155.594V29.5215C495.578 27.9164 494.938 26.3777 493.801 25.2427C492.664 24.1077 491.123 23.469 489.515 23.4664Z" fill="#3F3D56"/>
<path d="M487.953 27.8399H303.937C303.076 27.8418 302.251 28.1845 301.643 28.7929C301.035 29.4012 300.694 30.2255 300.694 31.085V154.033C300.695 154.891 301.037 155.714 301.645 156.321C302.253 156.928 303.078 157.269 303.937 157.271H487.953C488.813 157.269 489.637 156.928 490.245 156.321C490.853 155.714 491.196 154.891 491.197 154.033V31.085C491.197 30.2255 490.855 29.4012 490.247 28.7929C489.639 28.1845 488.814 27.8418 487.953 27.8399Z" fill="white"/>
<path d="M370.758 200.386V207.047C370.758 207.392 370.896 207.723 371.14 207.967C371.385 208.211 371.716 208.349 372.062 208.349H418.204C418.55 208.348 418.88 208.21 419.125 207.966C419.369 207.722 419.507 207.392 419.509 207.047V200.386H370.758Z" fill="#3F3D56"/>
<path d="M452.11 210.667H342.631C342.331 210.667 342.035 210.6 341.765 210.472C341.494 210.343 341.256 210.156 341.067 209.923C340.878 209.691 340.743 209.42 340.673 209.129C340.603 208.838 340.598 208.535 340.66 208.242L342.359 200.188C342.455 199.737 342.704 199.333 343.062 199.043C343.42 198.752 343.868 198.593 344.329 198.592H450.412C450.873 198.593 451.32 198.752 451.679 199.043C452.037 199.333 452.285 199.737 452.382 200.188L454.081 208.242C454.143 208.535 454.138 208.838 454.068 209.129C453.997 209.42 453.863 209.691 453.674 209.923C453.485 210.156 453.247 210.343 452.976 210.472C452.706 210.6 452.41 210.667 452.11 210.667Z" fill="#3F3D56"/>
<path d="M348.059 200.042H345.525C345.294 200.042 345.106 200.229 345.106 200.46V201.643C345.106 201.874 345.294 202.062 345.525 202.062H348.059C348.291 202.062 348.478 201.874 348.478 201.643V200.46C348.478 200.229 348.291 200.042 348.059 200.042Z" fill="#E6E6E6"/>
<path d="M354.803 200.042H352.269C352.038 200.042 351.85 200.229 351.85 200.46V201.643C351.85 201.874 352.038 202.062 352.269 202.062H354.803C355.034 202.062 355.222 201.874 355.222 201.643V200.46C355.222 200.229 355.034 200.042 354.803 200.042Z" fill="#E6E6E6"/>
<path d="M361.547 200.042H359.013C358.782 200.042 358.594 200.229 358.594 200.46V201.643C358.594 201.874 358.782 202.062 359.013 202.062H361.547C361.778 202.062 361.966 201.874 361.966 201.643V200.46C361.966 200.229 361.778 200.042 361.547 200.042Z" fill="#E6E6E6"/>
<path d="M368.29 200.042H365.757C365.525 200.042 365.338 200.229 365.338 200.46V201.643C365.338 201.874 365.525 202.062 365.757 202.062H368.29C368.522 202.062 368.71 201.874 368.71 201.643V200.46C368.71 200.229 368.522 200.042 368.29 200.042Z" fill="#E6E6E6"/>
<path d="M375.034 200.042H372.5C372.269 200.042 372.081 200.229 372.081 200.46V201.643C372.081 201.874 372.269 202.062 372.5 202.062H375.034C375.266 202.062 375.453 201.874 375.453 201.643V200.46C375.453 200.229 375.266 200.042 375.034 200.042Z" fill="#E6E6E6"/>
<path d="M381.778 200.042H379.244C379.013 200.042 378.825 200.229 378.825 200.46V201.643C378.825 201.874 379.013 202.062 379.244 202.062H381.778C382.009 202.062 382.197 201.874 382.197 201.643V200.46C382.197 200.229 382.009 200.042 381.778 200.042Z" fill="#E6E6E6"/>
<path d="M388.522 200.042H385.988C385.756 200.042 385.569 200.229 385.569 200.46V201.643C385.569 201.874 385.756 202.062 385.988 202.062H388.522C388.753 202.062 388.941 201.874 388.941 201.643V200.46C388.941 200.229 388.753 200.042 388.522 200.042Z" fill="#E6E6E6"/>
<path d="M395.265 200.042H392.732C392.5 200.042 392.312 200.229 392.312 200.46V201.643C392.312 201.874 392.5 202.062 392.732 202.062H395.265C395.497 202.062 395.684 201.874 395.684 201.643V200.46C395.684 200.229 395.497 200.042 395.265 200.042Z" fill="#E6E6E6"/>
<path d="M402.009 200.042H399.475C399.244 200.042 399.056 200.229 399.056 200.46V201.643C399.056 201.874 399.244 202.062 399.475 202.062H402.009C402.241 202.062 402.428 201.874 402.428 201.643V200.46C402.428 200.229 402.241 200.042 402.009 200.042Z" fill="#E6E6E6"/>
<path d="M408.753 200.042H406.219C405.988 200.042 405.8 200.229 405.8 200.46V201.643C405.8 201.874 405.988 202.062 406.219 202.062H408.753C408.984 202.062 409.172 201.874 409.172 201.643V200.46C409.172 200.229 408.984 200.042 408.753 200.042Z" fill="#E6E6E6"/>
<path d="M415.497 200.042H412.963C412.731 200.042 412.544 200.229 412.544 200.46V201.643C412.544 201.874 412.731 202.062 412.963 202.062H415.497C415.728 202.062 415.916 201.874 415.916 201.643V200.46C415.916 200.229 415.728 200.042 415.497 200.042Z" fill="#E6E6E6"/>
<path d="M422.24 200.042H419.707C419.475 200.042 419.287 200.229 419.287 200.46V201.643C419.287 201.874 419.475 202.062 419.707 202.062H422.24C422.472 202.062 422.659 201.874 422.659 201.643V200.46C422.659 200.229 422.472 200.042 422.24 200.042Z" fill="#E6E6E6"/>
<path d="M428.984 200.042H426.45C426.219 200.042 426.031 200.229 426.031 200.46V201.643C426.031 201.874 426.219 202.062 426.45 202.062H428.984C429.215 202.062 429.403 201.874 429.403 201.643V200.46C429.403 200.229 429.215 200.042 428.984 200.042Z" fill="#E6E6E6"/>
<path d="M435.728 200.042H433.194C432.963 200.042 432.775 200.229 432.775 200.46V201.643C432.775 201.874 432.963 202.062 433.194 202.062H435.728C435.959 202.062 436.147 201.874 436.147 201.643V200.46C436.147 200.229 435.959 200.042 435.728 200.042Z" fill="#E6E6E6"/>
<path d="M442.472 200.042H439.938C439.706 200.042 439.519 200.229 439.519 200.46V201.643C439.519 201.874 439.706 202.062 439.938 202.062H442.472C442.703 202.062 442.891 201.874 442.891 201.643V200.46C442.891 200.229 442.703 200.042 442.472 200.042Z" fill="#E6E6E6"/>
<path d="M449.215 200.042H446.681C446.45 200.042 446.262 200.229 446.262 200.46V201.643C446.262 201.874 446.45 202.062 446.681 202.062H449.215C449.447 202.062 449.634 201.874 449.634 201.643V200.46C449.634 200.229 449.447 200.042 449.215 200.042Z" fill="#E6E6E6"/>
<path d="M347.98 203.408H345.446C345.214 203.408 345.027 203.595 345.027 203.826V205.01C345.027 205.241 345.214 205.428 345.446 205.428H347.98C348.211 205.428 348.399 205.241 348.399 205.01V203.826C348.399 203.595 348.211 203.408 347.98 203.408Z" fill="#E6E6E6"/>
<path d="M354.723 203.408H352.19C351.958 203.408 351.771 203.595 351.771 203.826V205.01C351.771 205.241 351.958 205.428 352.19 205.428H354.723C354.955 205.428 355.142 205.241 355.142 205.01V203.826C355.142 203.595 354.955 203.408 354.723 203.408Z" fill="#E6E6E6"/>
<path d="M361.467 203.408H358.933C358.702 203.408 358.514 203.595 358.514 203.826V205.01C358.514 205.241 358.702 205.428 358.933 205.428H361.467C361.699 205.428 361.886 205.241 361.886 205.01V203.826C361.886 203.595 361.699 203.408 361.467 203.408Z" fill="#E6E6E6"/>
<path d="M368.211 203.408H365.677C365.446 203.408 365.258 203.595 365.258 203.826V205.01C365.258 205.241 365.446 205.428 365.677 205.428H368.211C368.442 205.428 368.63 205.241 368.63 205.01V203.826C368.63 203.595 368.442 203.408 368.211 203.408Z" fill="#E6E6E6"/>
<path d="M374.955 203.408H372.421C372.189 203.408 372.002 203.595 372.002 203.826V205.01C372.002 205.241 372.189 205.428 372.421 205.428H374.955C375.186 205.428 375.374 205.241 375.374 205.01V203.826C375.374 203.595 375.186 203.408 374.955 203.408Z" fill="#E6E6E6"/>
<path d="M381.698 203.408H379.165C378.933 203.408 378.745 203.595 378.745 203.826V205.01C378.745 205.241 378.933 205.428 379.165 205.428H381.698C381.93 205.428 382.117 205.241 382.117 205.01V203.826C382.117 203.595 381.93 203.408 381.698 203.408Z" fill="#E6E6E6"/>
<path d="M388.442 203.408H385.908C385.677 203.408 385.489 203.595 385.489 203.826V205.01C385.489 205.241 385.677 205.428 385.908 205.428H388.442C388.673 205.428 388.861 205.241 388.861 205.01V203.826C388.861 203.595 388.673 203.408 388.442 203.408Z" fill="#E6E6E6"/>
<path d="M395.186 203.408H392.652C392.421 203.408 392.233 203.595 392.233 203.826V205.01C392.233 205.241 392.421 205.428 392.652 205.428H395.186C395.417 205.428 395.605 205.241 395.605 205.01V203.826C395.605 203.595 395.417 203.408 395.186 203.408Z" fill="#E6E6E6"/>
<path d="M401.929 203.408H399.396C399.164 203.408 398.977 203.595 398.977 203.826V205.01C398.977 205.241 399.164 205.428 399.396 205.428H401.929C402.161 205.428 402.348 205.241 402.348 205.01V203.826C402.348 203.595 402.161 203.408 401.929 203.408Z" fill="#E6E6E6"/>
<path d="M408.673 203.408H406.139C405.908 203.408 405.72 203.595 405.72 203.826V205.01C405.72 205.241 405.908 205.428 406.139 205.428H408.673C408.905 205.428 409.092 205.241 409.092 205.01V203.826C409.092 203.595 408.905 203.408 408.673 203.408Z" fill="#E6E6E6"/>
<path d="M415.417 203.408H412.883C412.652 203.408 412.464 203.595 412.464 203.826V205.01C412.464 205.241 412.652 205.428 412.883 205.428H415.417C415.648 205.428 415.836 205.241 415.836 205.01V203.826C415.836 203.595 415.648 203.408 415.417 203.408Z" fill="#E6E6E6"/>
<path d="M422.161 203.408H419.627C419.395 203.408 419.208 203.595 419.208 203.826V205.01C419.208 205.241 419.395 205.428 419.627 205.428H422.161C422.392 205.428 422.58 205.241 422.58 205.01V203.826C422.58 203.595 422.392 203.408 422.161 203.408Z" fill="#E6E6E6"/>
<path d="M428.904 203.408H426.371C426.139 203.408 425.952 203.595 425.952 203.826V205.01C425.952 205.241 426.139 205.428 426.371 205.428H428.904C429.136 205.428 429.323 205.241 429.323 205.01V203.826C429.323 203.595 429.136 203.408 428.904 203.408Z" fill="#E6E6E6"/>
<path d="M435.648 203.408H433.114C432.883 203.408 432.695 203.595 432.695 203.826V205.01C432.695 205.241 432.883 205.428 433.114 205.428H435.648C435.879 205.428 436.067 205.241 436.067 205.01V203.826C436.067 203.595 435.879 203.408 435.648 203.408Z" fill="#E6E6E6"/>
<path d="M442.392 203.408H439.858C439.627 203.408 439.439 203.595 439.439 203.826V205.01C439.439 205.241 439.627 205.428 439.858 205.428H442.392C442.623 205.428 442.811 205.241 442.811 205.01V203.826C442.811 203.595 442.623 203.408 442.392 203.408Z" fill="#E6E6E6"/>
<path d="M449.136 203.408H446.602C446.37 203.408 446.183 203.595 446.183 203.826V205.01C446.183 205.241 446.37 205.428 446.602 205.428H449.136C449.367 205.428 449.555 205.241 449.555 205.01V203.826C449.555 203.595 449.367 203.408 449.136 203.408Z" fill="#E6E6E6"/>
<path d="M403.953 207.448H377.816C377.584 207.448 377.397 207.635 377.397 207.866V209.049C377.397 209.28 377.584 209.467 377.816 209.467H403.953C404.184 209.467 404.372 209.28 404.372 209.049V207.866C404.372 207.635 404.184 207.448 403.953 207.448Z" fill="#E6E6E6"/>
<path d="M460.516 58.7039V123.417C460.515 127.75 458.79 131.906 455.721 134.971C452.651 138.035 448.488 139.757 444.147 139.758H363.018C359.824 139.758 356.699 138.827 354.029 137.077C351.358 135.328 349.259 132.837 347.988 129.912C347.562 128.945 347.237 127.937 347.018 126.904C348.743 127.57 350.576 127.91 352.426 127.907H433.555C437.556 127.901 441.39 126.312 444.219 123.488C447.048 120.665 448.639 116.836 448.645 112.843V48.1298C448.648 46.2837 448.308 44.4531 447.641 42.7314C448.675 42.9503 449.685 43.2747 450.653 43.6997C453.584 44.9682 456.078 47.0644 457.831 49.7302C459.583 52.3961 460.516 55.5153 460.516 58.7039Z" fill="#F2F2F2"/>
<path d="M157.845 316.171L149.798 321.146L126.092 292.054L137.968 284.714L157.845 316.171Z" fill="#FFB6B6"/>
<path d="M164.792 326.562L158.319 329.447L154.435 323.861L154.204 331.28L137.037 338.932C136.214 339.298 135.295 339.393 134.414 339.201C133.534 339.01 132.738 338.543 132.142 337.867C131.546 337.192 131.182 336.345 131.104 335.448C131.025 334.552 131.235 333.654 131.703 332.886L141.186 317.323L138.428 311.155L153.233 305.588L164.792 326.562Z" fill="#2F2E41"/>
<path d="M135.303 310.575L148.894 297.426C138.797 272.552 137.99 257.133 123.992 227.049C157.203 233.83 180.948 233.418 208.414 227.338C217.713 225.312 241.705 206.81 239.732 197.324C239.64 196.88 239.531 196.441 239.406 196.006C236.457 185.97 238.534 170.602 232.152 159.466C220.346 155.023 202.409 170.028 188.377 179.175C181.611 183.585 186.564 189.596 181.51 191.171L162.139 197.449L114.611 189.786C112.314 189.438 109.971 189.548 107.716 190.109C105.462 190.669 103.341 191.67 101.476 193.053C99.6108 194.435 98.0383 196.173 96.8489 198.165C95.6595 200.158 94.8769 202.365 94.5461 204.661C94.4657 205.176 94.4074 205.694 94.3713 206.215C96.5582 218.3 98.8378 230.068 101.292 241.239C102.084 244.845 100.747 251.758 103.726 251.861C106.705 251.963 105.505 259.113 106.433 262.609C112.145 284.129 115.757 294.543 135.303 310.575Z" fill="#2F2E41"/>
<path d="M109.291 368.247L100.907 363.878L114.171 328.8L126.544 335.248L109.291 368.247Z" fill="#FFB6B6"/>
<path d="M107.893 342.059L121.336 351.298C137.811 327.511 148.509 295.725 156.475 260.159C187.494 246.65 214.637 231.195 233.551 210.465C236.657 206.989 238.286 202.443 238.092 197.789C237.898 193.136 235.897 188.74 232.513 185.534C232.182 185.224 231.839 184.927 231.486 184.643C223.293 178.129 205.098 181.877 193.469 176.432L172.694 205.138L175.082 211.824L167.855 215.336L161.753 218.302L154.767 221.696L131.869 232.825C129.793 233.861 127.943 235.297 126.425 237.05C124.908 238.804 123.753 240.84 123.028 243.041C122.303 245.242 122.021 247.564 122.2 249.874C122.378 252.184 123.013 254.437 124.067 256.501C124.299 256.968 124.55 257.425 124.821 257.872L116.316 300.168C116.316 300.168 118.656 307.531 114.974 306.842C111.292 306.153 113.299 315.176 113.299 315.176L107.893 342.059Z" fill="#2F2E41"/>
<path d="M104.214 387.578L97.9296 384.304L99.9044 377.796L93.935 382.223L77.2677 373.538C76.4687 373.122 75.824 372.462 75.4275 371.654C75.0311 370.846 74.9037 369.933 75.0641 369.047C75.2244 368.162 75.664 367.351 76.3187 366.733C76.9734 366.115 77.8089 365.721 78.7033 365.611L96.8109 363.369L99.9414 357.381L113.505 365.509L104.214 387.578Z" fill="#2F2E41"/>
<path d="M287.449 203.687L277.644 180.032L269.919 184.316L274.584 208.38C274.117 209.904 274.085 211.529 274.492 213.07C274.898 214.612 275.728 216.01 276.887 217.107C278.046 218.203 279.488 218.956 281.052 219.279C282.616 219.602 284.239 219.484 285.739 218.937C287.239 218.389 288.556 217.435 289.543 216.182C290.529 214.928 291.146 213.425 291.324 211.84C291.502 210.256 291.233 208.654 290.548 207.213C289.864 205.773 288.79 204.552 287.449 203.687Z" fill="#FFB6B6"/>
<path d="M122.92 16.6297L137.839 37.4519L144.39 31.5314L134.385 9.14913C134.494 7.55858 134.157 5.96921 133.411 4.55966C132.664 3.15011 131.539 1.97628 130.162 1.17014C128.784 0.363995 127.208 -0.0425007 125.612 -0.00364926C124.015 0.0352021 122.461 0.51786 121.124 1.39006C119.788 2.26226 118.721 3.48943 118.045 4.93359C117.368 6.37776 117.109 7.98167 117.295 9.56502C117.482 11.1484 118.107 12.6484 119.101 13.8964C120.094 15.1444 121.417 16.091 122.92 16.6297Z" fill="#FFB6B6"/>
<path d="M190.29 148.604C180.613 163.587 216.064 196.235 234.727 188.601C237.995 187.264 249.237 182.849 241.553 176.727C233.869 170.606 242.444 177.456 242.646 173.472C242.782 170.808 240.716 164.963 242.871 165.214C245.027 165.465 246.264 159.24 241.57 157.655C239.937 157.073 238.505 156.038 237.441 154.672C236.376 153.306 235.724 151.666 235.561 149.943C235.112 133.519 240.684 116.372 240.684 116.372L263.428 174.414C263.428 174.414 263.26 184.455 266.16 181.387C269.061 178.318 268.849 188.25 268.849 188.25C268.849 188.25 273.162 191.254 270.682 192.927C268.202 194.599 273.352 199.74 273.352 199.74L285.369 198.883C285.369 198.883 285.181 189.972 283.129 188.001C281.077 186.03 282.085 182.929 282.085 182.929C282.085 182.929 277.855 179.001 280.324 174.375C282.794 169.749 262.341 87.0045 262.341 87.0045C261.522 83.0235 259.616 79.3463 256.834 76.3792C254.052 73.4121 250.502 71.2708 246.577 70.1919L233.598 66.6244L231.294 57.4957H213.019L209.836 63.494L180.652 60.9233C180.652 60.9233 151.776 34.6938 153.186 32.6457C154.595 30.5977 150.119 25.8028 150.119 25.8028C150.119 25.8028 146.296 24.5537 148.453 23.8867C150.611 23.2198 146.533 21.678 146.533 21.678C146.533 21.678 142.757 20.6873 144.538 19.3829C146.319 18.0785 138.594 17.2216 138.594 17.2216L128.571 25.3857L130.597 28.8149C130.597 28.8149 129.362 33.4845 130.973 31.7798C132.585 30.0751 132.889 35.0222 132.889 35.0222C132.889 35.0222 133.712 40.4395 138.594 42.0716C143.475 43.7037 147.177 59.2095 147.177 59.2095L188.377 93.4853C182.102 100.676 183.596 108.195 189.154 115.886L190.29 148.604Z" fill="#FFD363"/>
<path d="M221.744 51.4305C232.673 51.4305 241.534 42.5853 241.534 31.6741C241.534 20.763 232.673 11.9178 221.744 11.9178C210.815 11.9178 201.955 20.763 201.955 31.6741C201.955 42.5853 210.815 51.4305 221.744 51.4305Z" fill="#FFB6B6"/>
<path d="M239.019 25.7906C238.512 25.9362 231.079 26.9045 227.86 27.5044C224.702 28.0956 224.152 24.0768 221.569 24.8308C221.57 24.8133 221.567 24.7956 221.56 24.7794C221.16 22.65 220.476 20.5837 219.526 18.6355C219.871 20.5014 219.92 22.4098 219.672 24.291C219.67 24.34 219.665 24.3887 219.655 24.4367C219.646 24.5224 219.629 24.5995 219.62 24.6852C216.891 23.4855 215.157 24.5566 213.269 24.9337C211.157 25.3535 209.509 26.279 210.694 33.5026C213.123 48.3612 225.758 53.6654 223.569 63.494C223.14 65.4391 222.058 67.8727 220.702 68.4811C220.301 66.3517 219.617 64.2854 218.668 62.3372C219.012 64.2031 219.061 66.1115 218.814 67.9927C216.711 65.7219 215.191 57.787 208.119 51.4974C206.376 49.955 197.647 40.8034 196.6 38.644C196.921 40.3705 197.077 42.1237 197.064 43.8796C197.066 45.0549 196.985 46.2288 196.823 47.3929C196.823 47.4679 196.814 47.5426 196.797 47.6157C196.789 47.7528 196.763 47.8728 196.746 48.0013C196.729 48.147 196.703 48.2841 196.677 48.4298C193.819 48.0184 191.287 47.5214 190.094 46.3561C184.291 40.7177 191.373 29.7323 195.244 19.7923C200.78 5.55926 216.857 3.66552 218.419 3.51128C225.303 2.8172 236.933 4.29106 240.735 12.0802C243.396 17.5387 241.697 25.0193 239.019 25.7906Z" fill="#2F2E41"/>
<path d="M197.291 29.0033L211.626 6.74091C208.19 4.74984 204.279 3.72536 200.306 3.77638C198.327 3.81746 196.378 4.27452 194.587 5.11778C192.796 5.96104 191.204 7.17158 189.913 8.67049C186.985 12.303 186.483 17.4381 187.58 21.9701C187.958 23.5353 195.172 18.0281 193.456 20.5987C192.046 22.6114 189.742 31.0713 189.164 33.4522C188.234 37.284 185.676 41.2174 187.955 44.438C190.649 48.2465 195.456 50.1395 200.123 50.3317C204.789 50.524 209.382 49.233 213.817 47.7707L197.291 29.0033Z" fill="#2F2E41"/>
<path d="M202.799 28.1253C202.592 28.125 202.392 28.0501 202.236 27.9143C202.08 27.7786 201.978 27.591 201.95 27.3864C201.921 27.1817 201.968 26.9736 202.081 26.8005C202.194 26.6273 202.366 26.5008 202.565 26.4441C202.79 26.0734 202.698 24.5132 202.623 23.2525C202.344 18.5191 201.877 10.597 209.581 5.24933C209.768 5.11961 209.999 5.06931 210.223 5.10948C210.447 5.14965 210.646 5.27702 210.776 5.46356C210.905 5.65009 210.956 5.88052 210.916 6.10415C210.875 6.32778 210.748 6.52629 210.561 6.65601C203.647 11.4556 204.062 18.4944 204.337 23.1517C204.494 25.8144 204.608 27.7378 202.99 28.1039C202.927 28.1182 202.863 28.1253 202.799 28.1253Z" fill="#6C63FF"/>
<path d="M379.842 81.2761H366.854C366.509 81.2761 366.179 81.1395 365.935 80.8963C365.692 80.6531 365.555 80.3233 365.555 79.9794C365.555 79.6355 365.692 79.3057 365.935 79.0626C366.179 78.8194 366.509 78.6828 366.854 78.6828H379.842C380.187 78.6828 380.517 78.8194 380.761 79.0626C381.004 79.3057 381.141 79.6355 381.141 79.9794C381.141 80.3233 381.004 80.6531 380.761 80.8963C380.517 81.1395 380.187 81.2761 379.842 81.2761Z" fill="#6C63FF"/>
<path d="M403.221 81.2761H390.233C390.062 81.2761 389.893 81.2425 389.736 81.1774C389.578 81.1122 389.435 81.0167 389.314 80.8963C389.194 80.7759 389.098 80.633 389.033 80.4756C388.968 80.3183 388.934 80.1497 388.934 79.9794C388.934 79.8092 388.968 79.6405 389.033 79.4832C389.098 79.3259 389.194 79.183 389.314 79.0626C389.435 78.9421 389.578 78.8466 389.736 78.7815C389.893 78.7163 390.062 78.6828 390.233 78.6828H403.221C403.392 78.6828 403.561 78.7163 403.718 78.7815C403.876 78.8466 404.019 78.9421 404.14 79.0626C404.26 79.183 404.356 79.3259 404.421 79.4832C404.486 79.6405 404.52 79.8092 404.52 79.9794C404.52 80.1497 404.486 80.3183 404.421 80.4756C404.356 80.633 404.26 80.7759 404.14 80.8963C404.019 81.0167 403.876 81.1122 403.718 81.1774C403.561 81.2425 403.392 81.2761 403.221 81.2761Z" fill="#6C63FF"/>
<path d="M414.911 91.6494H401.923C401.752 91.6494 401.583 91.6158 401.425 91.5506C401.268 91.4855 401.125 91.39 401.004 91.2696C400.883 91.1492 400.788 91.0062 400.723 90.8489C400.657 90.6916 400.624 90.523 400.624 90.3527C400.624 90.1824 400.657 90.0138 400.723 89.8565C400.788 89.6991 400.883 89.5562 401.004 89.4358C401.125 89.3154 401.268 89.2199 401.425 89.1547C401.583 89.0896 401.752 89.056 401.923 89.056H414.911C415.081 89.056 415.25 89.0896 415.408 89.1547C415.565 89.2199 415.709 89.3154 415.829 89.4358C415.95 89.5562 416.046 89.6991 416.111 89.8565C416.176 90.0138 416.21 90.1824 416.21 90.3527C416.21 90.523 416.176 90.6916 416.111 90.8489C416.046 91.0062 415.95 91.1492 415.829 91.2696C415.709 91.39 415.565 91.4855 415.408 91.5506C415.25 91.6158 415.081 91.6494 414.911 91.6494Z" fill="#6C63FF"/>
<path d="M391.603 91.6494H366.854C366.509 91.6494 366.179 91.5128 365.935 91.2696C365.692 91.0264 365.555 90.6966 365.555 90.3527C365.555 90.0088 365.692 89.679 365.935 89.4358C366.179 89.1926 366.509 89.056 366.854 89.056H391.603C391.948 89.056 392.278 89.1926 392.522 89.4358C392.765 89.679 392.902 90.0088 392.902 90.3527C392.902 90.6966 392.765 91.0264 392.522 91.2696C392.278 91.5128 391.948 91.6494 391.603 91.6494Z" fill="#6C63FF"/>
<path d="M438.362 81.2761H413.612C413.268 81.2761 412.937 81.1395 412.694 80.8963C412.45 80.6531 412.313 80.3233 412.313 79.9794C412.313 79.6355 412.45 79.3057 412.694 79.0626C412.937 78.8194 413.268 78.6828 413.612 78.6828H438.362C438.532 78.6828 438.701 78.7163 438.859 78.7815C439.016 78.8466 439.159 78.9421 439.28 79.0626C439.401 79.183 439.496 79.3259 439.562 79.4832C439.627 79.6405 439.66 79.8092 439.66 79.9794C439.66 80.1497 439.627 80.3183 439.562 80.4756C439.496 80.633 439.401 80.7759 439.28 80.8963C439.159 81.0167 439.016 81.1122 438.859 81.1774C438.701 81.2425 438.532 81.2761 438.362 81.2761Z" fill="#6C63FF"/>
<path d="M388.734 61.6326H363.985C363.814 61.6331 363.645 61.5999 363.487 61.5349C363.329 61.4699 363.185 61.3745 363.064 61.254C362.943 61.1336 362.847 60.9905 362.782 60.833C362.716 60.6754 362.683 60.5065 362.683 60.336C362.683 60.1654 362.716 59.9965 362.782 59.839C362.847 59.6815 362.943 59.5384 363.064 59.4179C363.185 59.2975 363.329 59.202 363.487 59.1371C363.645 59.0721 363.814 59.0389 363.985 59.0393H388.734C389.079 59.0393 389.409 59.1759 389.653 59.4191C389.896 59.6623 390.033 59.9921 390.033 60.336C390.033 60.6799 389.896 61.0097 389.653 61.2529C389.409 61.496 389.079 61.6326 388.734 61.6326Z" fill="#6C63FF"/>
<path d="M390.769 69.2082C390.527 69.2084 390.29 69.1328 390.093 68.9922C389.896 68.8516 389.747 68.653 389.669 68.424C389.59 68.1951 389.585 67.9473 389.654 67.7154C389.723 67.4834 389.863 67.2788 390.055 67.1303L396.392 62.2125C396.647 62.0149 396.858 61.7666 397.011 61.4834C397.165 61.2003 397.258 60.8883 397.284 60.5674C397.311 60.2465 397.27 59.9236 397.165 59.6192C397.06 59.3148 396.893 59.0354 396.674 58.7989L391.353 53.0486C391.25 52.9366 391.169 52.8053 391.116 52.6623C391.063 52.5192 391.039 52.3672 391.045 52.2148C391.051 52.0624 391.087 51.9127 391.151 51.7742C391.215 51.6358 391.306 51.5112 391.418 51.4077C391.53 51.3042 391.662 51.2238 391.805 51.171C391.948 51.1183 392.101 51.0942 392.253 51.1002C392.406 51.1062 392.556 51.1422 392.694 51.206C392.833 51.2699 392.958 51.3604 393.062 51.4724L400.963 60.0112C401.072 60.1293 401.156 60.2688 401.208 60.4208C401.261 60.5729 401.281 60.7341 401.268 60.8944C401.255 61.0547 401.208 61.2105 401.131 61.3519C401.055 61.4934 400.95 61.6174 400.822 61.7161L391.483 68.9639C391.279 69.1224 391.028 69.2084 390.769 69.2082Z" fill="#6C63FF"/>
<path d="M362.733 69.2082C362.975 69.2084 363.211 69.1328 363.409 68.9922C363.606 68.8516 363.755 68.653 363.833 68.424C363.912 68.1951 363.917 67.9473 363.848 67.7154C363.779 67.4834 363.638 67.2788 363.447 67.1303L357.11 62.2125C356.855 62.0149 356.644 61.7666 356.491 61.4834C356.337 61.2003 356.244 60.8883 356.218 60.5674C356.191 60.2465 356.232 59.9236 356.337 59.6192C356.442 59.3148 356.609 59.0354 356.828 58.7989L362.149 53.0486C362.252 52.9366 362.333 52.8053 362.386 52.6623C362.439 52.5192 362.463 52.3672 362.457 52.2148C362.451 52.0624 362.415 51.9127 362.351 51.7742C362.287 51.6358 362.196 51.5112 362.084 51.4077C361.972 51.3042 361.84 51.2238 361.697 51.171C361.554 51.1183 361.401 51.0942 361.249 51.1002C361.096 51.1062 360.946 51.1422 360.807 51.206C360.669 51.2699 360.544 51.3604 360.44 51.4724L352.539 60.0112C352.43 60.1293 352.346 60.2688 352.294 60.4208C352.241 60.5729 352.221 60.7341 352.234 60.8944C352.247 61.0547 352.294 61.2105 352.37 61.3519C352.447 61.4934 352.552 61.6174 352.679 61.7161L362.019 68.9639C362.223 69.1224 362.474 69.2084 362.733 69.2082Z" fill="#6C63FF"/>
<path d="M401.529 113.886H376.779C376.435 113.886 376.104 113.75 375.861 113.506C375.617 113.263 375.48 112.933 375.48 112.589C375.48 112.246 375.617 111.916 375.861 111.673C376.104 111.429 376.435 111.293 376.779 111.293H401.529C401.873 111.293 402.204 111.429 402.447 111.673C402.691 111.916 402.828 112.246 402.828 112.589C402.828 112.933 402.691 113.263 402.447 113.506C402.204 113.75 401.873 113.886 401.529 113.886Z" fill="#6C63FF"/>
<path d="M405.89 120.301C405.648 120.301 405.411 120.225 405.214 120.085C405.016 119.944 404.868 119.745 404.789 119.516C404.711 119.287 404.706 119.04 404.775 118.808C404.844 118.576 404.984 118.371 405.176 118.223L411.513 113.305C411.768 113.107 411.978 112.859 412.132 112.576C412.285 112.293 412.378 111.981 412.405 111.66C412.431 111.339 412.391 111.016 412.286 110.711C412.181 110.407 412.013 110.128 411.794 109.891L406.474 104.141C406.37 104.029 406.29 103.898 406.237 103.755C406.184 103.611 406.16 103.459 406.166 103.307C406.172 103.155 406.208 103.005 406.272 102.867C406.336 102.728 406.427 102.603 406.539 102.5C406.651 102.396 406.782 102.316 406.926 102.263C407.069 102.211 407.221 102.186 407.374 102.192C407.526 102.198 407.676 102.234 407.815 102.298C407.954 102.362 408.079 102.453 408.182 102.565L416.083 111.103C416.193 111.222 416.276 111.361 416.329 111.513C416.381 111.665 416.402 111.826 416.388 111.987C416.375 112.147 416.329 112.303 416.252 112.444C416.176 112.586 416.07 112.71 415.943 112.808L406.603 120.056C406.4 120.215 406.148 120.301 405.89 120.301Z" fill="#6C63FF"/>
<path d="M362.733 120.301C362.975 120.301 363.211 120.225 363.409 120.085C363.606 119.944 363.755 119.745 363.833 119.516C363.912 119.287 363.917 119.04 363.848 118.808C363.779 118.576 363.638 118.371 363.447 118.223L357.11 113.305C356.855 113.107 356.644 112.859 356.491 112.576C356.337 112.293 356.244 111.981 356.218 111.66C356.191 111.339 356.232 111.016 356.337 110.711C356.442 110.407 356.609 110.128 356.828 109.891L362.149 104.141C362.358 103.915 362.469 103.615 362.457 103.307C362.445 102.999 362.31 102.709 362.084 102.5C361.857 102.291 361.557 102.18 361.249 102.192C360.94 102.205 360.65 102.338 360.44 102.565L352.539 111.103C352.43 111.222 352.346 111.361 352.294 111.513C352.241 111.665 352.221 111.826 352.234 111.987C352.247 112.147 352.294 112.303 352.37 112.444C352.447 112.586 352.552 112.71 352.679 112.808L362.019 120.056C362.223 120.215 362.474 120.301 362.733 120.301Z" fill="#6C63FF"/>
<path d="M364.941 116.667L370.144 104.787C370.283 104.473 370.54 104.227 370.86 104.103C371.181 103.978 371.537 103.986 371.852 104.123C372.166 104.26 372.414 104.517 372.54 104.836C372.666 105.155 372.66 105.51 372.524 105.825L367.321 117.706C367.254 117.863 367.155 118.005 367.033 118.124C366.91 118.243 366.764 118.336 366.605 118.399C366.446 118.461 366.276 118.492 366.105 118.489C365.934 118.486 365.765 118.449 365.609 118.381C365.452 118.312 365.31 118.214 365.192 118.09C365.073 117.967 364.98 117.822 364.918 117.663C364.856 117.503 364.826 117.333 364.83 117.163C364.834 116.992 364.872 116.824 364.941 116.667Z" fill="#6C63FF"/>
</g>
<defs>
<clipPath id="clip0_103_3561">
<rect width="616" height="389" fill="white"/>
</clipPath>
</defs>
</svg>
