<svg width="438" height="377" viewBox="0 0 438 377" fill="none" xmlns="http://www.w3.org/2000/svg">
<g clip-path="url(#clip0_103_3500)">
<path d="M191.475 373.41C191.475 374.073 191.724 374.606 192.035 374.606H437.441C437.751 374.606 438 374.073 438 373.41C438 372.746 437.751 372.213 437.441 372.213H192.035C191.724 372.213 191.475 372.746 191.475 373.41Z" fill="#3F3C57"/>
<path d="M285.127 44.8167L308.718 31.9093V68.7876H281.435L285.127 44.8167Z" fill="#2E2E41"/>
<path d="M313.776 53.0387L315.953 71.1438L300.262 102.352L290.523 73.3054L295.101 52.4373L313.776 53.0387Z" fill="#FDB4B4"/>
<path d="M316.764 72.2246H289.672V104.919H316.764V72.2246Z" fill="#1E1E1E"/>
<path d="M339.114 245.363L346.188 350.752L328.798 351.34L305.808 246.247L339.114 245.363Z" fill="#2E2E41"/>
<path d="M296.966 244.775L304.04 350.163L286.65 350.752L263.659 245.658L296.966 244.775Z" fill="#2E2E41"/>
<path d="M357.487 267.716L357.073 267.714L246.29 267.353L246.39 266.961L274.871 154.255L267.737 97.3766C266.385 86.5988 272.162 76.4115 282.112 72.0274L285.704 70.4448L292.528 65.4884L301.257 96.2974L315.237 65.4643L321.396 71.6141L335.284 75.2945C343.941 77.5882 349.549 86.0002 348.329 94.8616L348.315 94.9233L327.105 155.368L357.487 267.716Z" fill="#E8E9EA"/>
<path d="M287.766 349.554L306.321 350.485L308.011 360.34C308.011 360.34 321.21 377.49 305.354 376.694C289.497 375.898 262.418 379.424 262.725 373.333C263.032 367.242 282.731 364.567 282.731 364.567L287.766 349.554Z" fill="#2E2E41"/>
<path d="M328.887 348.473L347.443 349.405L349.132 359.26C349.132 359.26 362.331 376.41 346.475 375.614C330.619 374.818 303.54 378.344 303.846 372.253C304.153 366.161 323.852 363.487 323.852 363.487L328.887 348.473Z" fill="#2E2E41"/>
<path d="M345.879 207.401C345.447 214.812 341.269 220.597 336.546 220.322C331.824 220.047 328.347 213.816 328.78 206.402C328.912 203.438 329.753 200.549 331.232 197.976L333.459 166.597L348.18 167.955L344.422 198.745C345.593 201.473 346.093 204.441 345.879 207.401Z" fill="#FDB4B4"/>
<path d="M270.228 204.583C269.639 211.983 265.338 217.678 260.622 217.303C255.907 216.927 252.563 210.624 253.154 203.221C253.35 200.26 254.252 197.39 255.786 194.849L258.681 163.525L273.37 165.195L268.956 195.898C270.069 198.65 270.505 201.628 270.228 204.583Z" fill="#FDB4B4"/>
<path d="M348.25 195.064L326.87 193.701L326.896 193.381L331.166 139.985L324.344 89.7747C323.919 86.6472 324.776 83.5709 326.759 81.1129C328.741 78.6546 331.567 77.1624 334.718 76.9104C340.749 76.4355 346.098 80.7388 346.908 86.7215L355.973 153.673L355.964 153.723L348.25 195.064Z" fill="#E8E9EA"/>
<path d="M273.788 193.019L252.374 191.726L252.421 191.388L267.187 84.4239C268.74 78.5491 274.589 74.9356 280.507 76.158C283.602 76.7972 286.222 78.6274 287.884 81.3118C289.547 83.9962 290.016 87.1545 289.207 90.2055L273.788 193.019Z" fill="#E8E9EA"/>
<path d="M300.803 105.729C301.849 105.729 302.697 104.883 302.697 103.838C302.697 102.793 301.849 101.947 300.803 101.947C299.757 101.947 298.909 102.793 298.909 103.838C298.909 104.883 299.757 105.729 300.803 105.729Z" fill="#D6D7D8"/>
<path d="M300.803 120.05C301.849 120.05 302.697 119.203 302.697 118.158C302.697 117.114 301.849 116.267 300.803 116.267C299.757 116.267 298.909 117.114 298.909 118.158C298.909 119.203 299.757 120.05 300.803 120.05Z" fill="#D6D7D8"/>
<path d="M300.803 134.37C301.849 134.37 302.697 133.524 302.697 132.479C302.697 131.434 301.849 130.588 300.803 130.588C299.757 130.588 298.909 131.434 298.909 132.479C298.909 133.524 299.757 134.37 300.803 134.37Z" fill="#D6D7D8"/>
<path d="M300.803 148.691C301.849 148.691 302.697 147.844 302.697 146.8C302.697 145.755 301.849 144.908 300.803 144.908C299.757 144.908 298.909 145.755 298.909 146.8C298.909 147.844 299.757 148.691 300.803 148.691Z" fill="#D6D7D8"/>
<path d="M300.803 163.012C301.849 163.012 302.697 162.165 302.697 161.12C302.697 160.076 301.849 159.229 300.803 159.229C299.757 159.229 298.909 160.076 298.909 161.12C298.909 162.165 299.757 163.012 300.803 163.012Z" fill="#D6D7D8"/>
<path d="M300.803 177.332C301.849 177.332 302.697 176.485 302.697 175.441C302.697 174.396 301.849 173.549 300.803 173.549C299.757 173.549 298.909 174.396 298.909 175.441C298.909 176.485 299.757 177.332 300.803 177.332Z" fill="#D6D7D8"/>
<path d="M300.803 191.653C301.849 191.653 302.697 190.806 302.697 189.761C302.697 188.717 301.849 187.87 300.803 187.87C299.757 187.87 298.909 188.717 298.909 189.761C298.909 190.806 299.757 191.653 300.803 191.653Z" fill="#D6D7D8"/>
<path d="M300.803 205.973C301.849 205.973 302.697 205.126 302.697 204.082C302.697 203.037 301.849 202.19 300.803 202.19C299.757 202.19 298.909 203.037 298.909 204.082C298.909 205.126 299.757 205.973 300.803 205.973Z" fill="#D6D7D8"/>
<path d="M303.678 62.2788C313.46 62.2788 321.391 54.3582 321.391 44.5877C321.391 34.8171 313.46 26.8965 303.678 26.8965C293.895 26.8965 285.965 34.8171 285.965 44.5877C285.965 54.3582 293.895 62.2788 303.678 62.2788Z" fill="#FDB4B4"/>
<path d="M312.96 23.9355C313.809 25.6596 312.463 27.8132 310.682 28.5381C308.9 29.263 306.888 28.9693 304.988 28.6676C303.088 28.3658 301.073 28.0797 299.297 28.8174C296.998 29.7719 295.703 32.1663 294.587 34.3882C292.502 38.5362 290.418 42.6841 288.334 46.8321C287.316 48.8587 286.275 50.9764 286.255 53.2438C286.219 57.4057 289.525 60.7317 291.304 64.4957C293.469 69.0785 293.291 74.6947 290.838 79.131C288.386 83.5674 283.723 86.7106 278.686 87.322C277.361 87.4829 275.958 87.4654 274.767 86.8641C273.575 86.2628 272.666 84.9497 272.886 83.6347C273.318 81.0628 277.253 80.4618 277.975 77.9559C278.353 76.6477 277.685 75.2508 276.784 74.229C275.883 73.2072 274.744 72.4102 273.885 71.3533C271.904 68.9163 271.772 65.1543 273.577 62.5848C274.638 61.0747 276.279 59.9528 276.965 58.2398C277.55 56.7798 277.337 55.1386 277.116 53.5818C276.832 51.5813 276.547 49.5808 276.263 47.5804C275.931 45.2464 275.604 42.8288 276.26 40.5642C277.763 35.3748 283.63 32.9375 287.07 28.7692C288.669 26.8322 289.745 24.5026 291.385 22.6004C294.137 19.4084 298.471 17.6475 302.673 18.0135C306.875 18.3796 310.837 20.8632 312.995 24.483" fill="#2E2E41"/>
<path d="M310.164 24.2627C309.299 24.5718 308.978 25.6975 309.227 26.5811C309.476 27.4647 310.128 28.1667 310.725 28.8646C317.478 36.7573 319.047 48.6959 314.564 58.0622C313.371 60.5536 311.782 62.8982 311.139 65.5839C310.671 67.538 310.696 69.6815 309.611 71.3733C308.506 73.0956 306.316 74.2497 306.099 76.2838C305.96 77.5892 306.757 78.8572 307.825 79.6226C308.893 80.3879 310.197 80.7381 311.48 81.0236C314.815 81.7657 318.224 82.1709 321.64 82.2309C322.754 82.2504 323.903 82.2263 324.924 81.7832C325.946 81.34 326.818 80.3789 326.829 79.2666C326.839 78.3923 326.334 77.5859 326.269 76.7139C326.076 74.1014 329.596 72.7115 330.282 70.1829C330.733 68.5205 329.845 66.8099 328.898 65.3701C327.952 63.9302 326.872 62.4184 326.896 60.6962C326.918 59.0476 327.954 57.5956 328.356 55.9966C328.913 53.7849 328.229 51.4714 327.551 49.2938C326.974 47.4425 326.397 45.5911 325.82 43.7398C325.207 41.7717 324.593 39.8037 323.98 37.8357C322.91 34.3998 321.786 30.8645 319.469 28.1088C317.152 25.3531 313.313 23.547 309.891 24.6721" fill="#2E2E41"/>
<path d="M322.234 92.8162L321.02 92.4628C323.549 83.801 318.096 67.6368 318.041 67.4746L319.237 67.0669C319.469 67.745 324.875 83.7751 322.234 92.8162Z" fill="#3F3C57"/>
<path d="M321.627 102.765C324.545 102.765 326.91 100.403 326.91 97.4893C326.91 94.5754 324.545 92.2133 321.627 92.2133C318.71 92.2133 316.345 94.5754 316.345 97.4893C316.345 100.403 318.71 102.765 321.627 102.765Z" fill="#3F3C57"/>
<path d="M286.918 116.168H283.714C283.365 116.168 283.082 115.885 283.082 115.536C283.082 115.188 283.365 114.905 283.714 114.905H286.918C287.801 114.905 288.63 114.561 289.254 113.937C289.877 113.313 290.22 112.484 290.218 111.603L290.179 91.8945C290.179 87.613 286.692 84.1309 282.407 84.1309C278.121 84.1309 274.634 87.613 274.634 91.8932L274.673 110.34C274.677 112.14 276.146 113.615 277.948 113.629L280.147 113.646C280.496 113.648 280.777 113.933 280.774 114.282C280.772 114.629 280.489 114.909 280.142 114.909H280.137L277.938 114.892C275.446 114.873 273.413 112.832 273.409 110.343L273.37 91.8945C273.37 86.9167 277.424 82.8678 282.407 82.8678C287.389 82.8678 291.443 86.9167 291.443 91.8932L291.482 111.6C291.485 112.82 291.011 113.966 290.149 114.829C289.286 115.692 288.139 116.168 286.918 116.168Z" fill="#3F3C57"/>
<path d="M280.142 116.516C281.38 116.516 282.383 115.513 282.383 114.277C282.383 113.041 281.38 112.039 280.142 112.039C278.904 112.039 277.901 113.041 277.901 114.277C277.901 115.513 278.904 116.516 280.142 116.516Z" fill="#3F3C57"/>
<path d="M283.714 117.775C284.952 117.775 285.955 116.773 285.955 115.536C285.955 114.3 284.952 113.298 283.714 113.298C282.476 113.298 281.473 114.3 281.473 115.536C281.473 116.773 282.476 117.775 283.714 117.775Z" fill="#3F3C57"/>
</g>
<defs>
<clipPath id="clip0_103_3500">
<rect width="438" height="377" fill="white"/>
</clipPath>
</defs>
</svg>
