<svg width="138" height="4103" viewBox="0 0 138 4103" fill="none" xmlns="http://www.w3.org/2000/svg">
<path d="M5.95721 6L32.0454 63.394C34.5051 68.8054 34.4303 75.0306 31.8413 80.3813L10.0439 125.429C7.4548 130.78 7.37998 137.005 9.83971 142.417L32.0454 191.269C34.5051 196.68 34.4303 202.906 31.8413 208.256L10.0439 253.304C7.45479 258.655 7.37998 264.88 9.83971 270.292L32.0454 319.144C34.5051 324.555 34.4303 330.781 31.8412 336.131L10.0439 381.179C7.45479 386.53 7.37997 392.755 9.8397 398.167L32.0454 447.019C34.5051 452.43 34.4303 458.656 31.8412 464.006L10.0438 509.054C7.45478 514.405 7.37997 520.63 9.8397 526.042L32.0454 574.894C34.5051 580.305 34.4303 586.531 31.8412 591.881L10.0438 636.929C7.45478 642.28 7.37996 648.505 9.83969 653.917L32.0454 702.769C34.5051 708.18 34.4303 714.406 31.8412 719.756L10.0438 764.804C7.45477 770.155 7.37995 776.38 9.83969 781.792L32.0454 830.644C34.5051 836.055 34.4303 842.281 31.8412 847.631L10.0438 892.679C7.45477 898.03 7.37995 904.255 9.83968 909.667L32.0454 958.519C34.5051 963.93 34.4303 970.156 31.8412 975.506L10.0438 1020.55C7.45476 1025.9 7.37995 1032.13 9.83969 1037.54L32.0454 1086.39C34.5051 1091.81 34.4303 1098.03 31.8413 1103.38L10.0439 1148.43C7.45482 1153.78 7.38 1160.01 9.83973 1165.42L32.0454 1214.27C34.5051 1219.68 34.4303 1225.91 31.8413 1231.26L10.0439 1276.3C7.45481 1281.65 7.37999 1287.88 9.83973 1293.29L32.0454 1342.14C34.5051 1347.56 34.4303 1353.78 31.8413 1359.13L10.0439 1404.18C7.4548 1409.53 7.37999 1415.76 9.83972 1421.17L32.0454 1470.02C34.5051 1475.43 34.4303 1481.66 31.8413 1487.01L10.0439 1532.05C7.4548 1537.4 7.37998 1543.63 9.83971 1549.04L32.0454 1597.89C34.5051 1603.31 34.4303 1609.53 31.8413 1614.88L10.0439 1659.93C7.45479 1665.28 7.37998 1671.51 9.83971 1676.92L32.0454 1725.77C34.5051 1731.18 34.4303 1737.41 31.8412 1742.76L10.0439 1787.8C7.45479 1793.15 7.37997 1799.38 9.8397 1804.79L32.0454 1853.64C34.5051 1859.06 34.4303 1865.28 31.8412 1870.63L10.0438 1915.68C7.45478 1921.03 7.37997 1927.26 9.8397 1932.67L32.0454 1981.52C34.5051 1986.93 34.4303 1993.16 31.8412 1998.51L10.0438 2043.55C7.45478 2048.9 7.37997 2055.13 9.83971 2060.54L32.0455 2109.39C34.5052 2114.81 34.4304 2121.03 31.8413 2126.38L10.0439 2171.43C7.45481 2176.78 7.38005 2183.01 9.83978 2188.42L32.0455 2237.27C34.5052 2242.68 34.4304 2248.91 31.8413 2254.26L10.0439 2299.3C7.45481 2304.65 7.38004 2310.88 9.83977 2316.29L32.0455 2365.14C34.5052 2370.56 34.4304 2376.78 31.8413 2382.13L10.0439 2427.18C7.4548 2432.53 7.38003 2438.76 9.83977 2444.17L32.0455 2493.02C34.5052 2498.43 34.4304 2504.66 31.8413 2510.01L10.0439 2555.05C7.45479 2560.4 7.38003 2566.63 9.83976 2572.04L32.0454 2620.89C34.5052 2626.31 34.4303 2632.53 31.8413 2637.88L10.0439 2682.93C7.45479 2688.28 7.38002 2694.51 9.83975 2699.92L32.0454 2748.77C34.5052 2754.18 34.4303 2760.41 31.8413 2765.76L10.0439 2810.8C7.45478 2816.15 7.38002 2822.38 9.83975 2827.79L32.0454 2876.64C34.5052 2882.06 34.4303 2888.28 31.8413 2893.63L10.0438 2938.68C7.45478 2944.03 7.38001 2950.26 9.83974 2955.67L32.0454 3004.52C34.5052 3009.93 34.4303 3016.16 31.8413 3021.51L10.0438 3066.55C7.45477 3071.9 7.38 3078.13 9.83974 3083.54L32.0454 3132.39C34.5052 3137.81 34.4303 3144.03 31.8413 3149.38L10.0439 3194.43C7.45483 3199.78 7.38 3206.01 9.83973 3211.42L32.0454 3260.27C34.5051 3265.68 34.4303 3271.91 31.8413 3277.26L10.0439 3322.3C7.45482 3327.66 7.37999 3333.88 9.83973 3339.29L32.0454 3388.14C34.5051 3393.56 34.4303 3399.78 31.8412 3405.13L10.0439 3450.18C7.45482 3455.53 7.37999 3461.76 9.83972 3467.17L32.0454 3516.02C34.5051 3521.43 34.4303 3527.66 31.8412 3533.01L10.0439 3578.05C7.45481 3583.41 7.37998 3589.63 9.83972 3595.04L32.0454 3643.89C34.5051 3649.31 34.4303 3655.53 31.8412 3660.88L10.0439 3705.93C7.45481 3711.28 7.37998 3717.51 9.83971 3722.92L32.0454 3771.77C34.5051 3777.18 34.4303 3783.41 31.8412 3788.76L10.0439 3833.8C7.4548 3839.16 7.37997 3845.38 9.8397 3850.79L32.0454 3899.64C34.5051 3905.06 34.4303 3911.28 31.8412 3916.63L10.0439 3961.68C7.4548 3967.03 7.37997 3973.26 9.8397 3978.67L32.0454 4027.52C34.5051 4032.93 34.4303 4039.16 31.8412 4044.51L5.95719 4098" stroke="#FFCAE9" stroke-opacity="0.35" stroke-width="10" stroke-linecap="round"/>
<path d="M104.957 6L131.045 63.394C133.505 68.8054 133.43 75.0306 130.841 80.3813L109.044 125.429C106.455 130.78 106.38 137.005 108.84 142.417L131.045 191.269C133.505 196.68 133.43 202.906 130.841 208.256L109.044 253.304C106.455 258.655 106.38 264.88 108.84 270.292L131.045 319.144C133.505 324.555 133.43 330.781 130.841 336.131L109.044 381.179C106.455 386.53 106.38 392.755 108.84 398.167L131.045 447.019C133.505 452.43 133.43 458.656 130.841 464.006L109.044 509.054C106.455 514.405 106.38 520.63 108.84 526.042L131.045 574.894C133.505 580.305 133.43 586.531 130.841 591.881L109.044 636.929C106.455 642.28 106.38 648.505 108.84 653.917L131.045 702.769C133.505 708.18 133.43 714.406 130.841 719.756L109.044 764.804C106.455 770.155 106.38 776.38 108.84 781.792L131.045 830.644C133.505 836.055 133.43 842.281 130.841 847.631L109.044 892.679C106.455 898.03 106.38 904.255 108.84 909.667L131.045 958.519C133.505 963.93 133.43 970.156 130.841 975.506L109.044 1020.55C106.455 1025.9 106.38 1032.13 108.84 1037.54L131.045 1086.39C133.505 1091.81 133.43 1098.03 130.841 1103.38L109.044 1148.43C106.455 1153.78 106.38 1160.01 108.84 1165.42L131.045 1214.27C133.505 1219.68 133.43 1225.91 130.841 1231.26L109.044 1276.3C106.455 1281.65 106.38 1287.88 108.84 1293.29L131.045 1342.14C133.505 1347.56 133.43 1353.78 130.841 1359.13L109.044 1404.18C106.455 1409.53 106.38 1415.76 108.84 1421.17L131.045 1470.02C133.505 1475.43 133.43 1481.66 130.841 1487.01L109.044 1532.05C106.455 1537.4 106.38 1543.63 108.84 1549.04L131.045 1597.89C133.505 1603.31 133.43 1609.53 130.841 1614.88L109.044 1659.93C106.455 1665.28 106.38 1671.51 108.84 1676.92L131.045 1725.77C133.505 1731.18 133.43 1737.41 130.841 1742.76L109.044 1787.8C106.455 1793.15 106.38 1799.38 108.84 1804.79L131.045 1853.64C133.505 1859.06 133.43 1865.28 130.841 1870.63L109.044 1915.68C106.455 1921.03 106.38 1927.26 108.84 1932.67L131.045 1981.52C133.505 1986.93 133.43 1993.16 130.841 1998.51L109.044 2043.55C106.455 2048.9 106.38 2055.13 108.84 2060.54L131.045 2109.39C133.505 2114.81 133.43 2121.03 130.841 2126.38L109.044 2171.43C106.455 2176.78 106.38 2183.01 108.84 2188.42L131.045 2237.27C133.505 2242.68 133.43 2248.91 130.841 2254.26L109.044 2299.3C106.455 2304.65 106.38 2310.88 108.84 2316.29L131.045 2365.14C133.505 2370.56 133.43 2376.78 130.841 2382.13L109.044 2427.18C106.455 2432.53 106.38 2438.76 108.84 2444.17L131.045 2493.02C133.505 2498.43 133.43 2504.66 130.841 2510.01L109.044 2555.05C106.455 2560.4 106.38 2566.63 108.84 2572.04L131.045 2620.89C133.505 2626.31 133.43 2632.53 130.841 2637.88L109.044 2682.93C106.455 2688.28 106.38 2694.51 108.84 2699.92L131.045 2748.77C133.505 2754.18 133.43 2760.41 130.841 2765.76L109.044 2810.8C106.455 2816.15 106.38 2822.38 108.84 2827.79L131.045 2876.64C133.505 2882.06 133.43 2888.28 130.841 2893.63L109.044 2938.68C106.455 2944.03 106.38 2950.26 108.84 2955.67L131.045 3004.52C133.505 3009.93 133.43 3016.16 130.841 3021.51L109.044 3066.55C106.455 3071.9 106.38 3078.13 108.84 3083.54L131.045 3132.39C133.505 3137.81 133.43 3144.03 130.841 3149.38L109.044 3194.43C106.455 3199.78 106.38 3206.01 108.84 3211.42L131.045 3260.27C133.505 3265.68 133.43 3271.91 130.841 3277.26L109.044 3322.3C106.455 3327.66 106.38 3333.88 108.84 3339.29L131.045 3388.14C133.505 3393.56 133.43 3399.78 130.841 3405.13L109.044 3450.18C106.455 3455.53 106.38 3461.76 108.84 3467.17L131.045 3516.02C133.505 3521.43 133.43 3527.66 130.841 3533.01L109.044 3578.05C106.455 3583.41 106.38 3589.63 108.84 3595.04L131.045 3643.89C133.505 3649.31 133.43 3655.53 130.841 3660.88L109.044 3705.93C106.455 3711.28 106.38 3717.51 108.84 3722.92L131.045 3771.77C133.505 3777.18 133.43 3783.41 130.841 3788.76L109.044 3833.8C106.455 3839.16 106.38 3845.38 108.84 3850.79L131.045 3899.64C133.505 3905.06 133.43 3911.28 130.841 3916.63L109.044 3961.68C106.455 3967.03 106.38 3973.26 108.84 3978.67L131.045 4027.52C133.505 4032.93 133.43 4039.16 130.841 4044.51L104.957 4098" stroke="#FFCAE9" stroke-width="10" stroke-linecap="round"/>
<path d="M55.9572 6L82.0454 63.394C84.5051 68.8054 84.4303 75.0306 81.8413 80.3813L60.0439 125.429C57.4548 130.78 57.38 137.005 59.8397 142.417L82.0454 191.269C84.5051 196.68 84.4303 202.906 81.8413 208.256L60.0439 253.304C57.4548 258.655 57.38 264.88 59.8397 270.292L82.0454 319.144C84.5051 324.555 84.4303 330.781 81.8412 336.131L60.0439 381.179C57.4548 386.53 57.38 392.755 59.8397 398.167L82.0454 447.019C84.5051 452.43 84.4303 458.656 81.8412 464.006L60.0438 509.054C57.4548 514.405 57.38 520.63 59.8397 526.042L82.0454 574.894C84.5051 580.305 84.4303 586.531 81.8412 591.881L60.0438 636.929C57.4548 642.28 57.38 648.505 59.8397 653.917L82.0454 702.769C84.5051 708.18 84.4303 714.406 81.8412 719.756L60.0438 764.804C57.4548 770.155 57.38 776.38 59.8397 781.792L82.0454 830.644C84.5051 836.055 84.4303 842.281 81.8412 847.631L60.0438 892.679C57.4548 898.03 57.3799 904.255 59.8397 909.667L82.0454 958.519C84.5051 963.93 84.4303 970.156 81.8412 975.506L60.0438 1020.55C57.4548 1025.9 57.3799 1032.13 59.8397 1037.54L82.0454 1086.39C84.5051 1091.81 84.4303 1098.03 81.8413 1103.38L60.0439 1148.43C57.4548 1153.78 57.38 1160.01 59.8397 1165.42L82.0454 1214.27C84.5051 1219.68 84.4303 1225.91 81.8413 1231.26L60.0439 1276.3C57.4548 1281.65 57.38 1287.88 59.8397 1293.29L82.0454 1342.14C84.5051 1347.56 84.4303 1353.78 81.8413 1359.13L60.0439 1404.18C57.4548 1409.53 57.38 1415.76 59.8397 1421.17L82.0454 1470.02C84.5051 1475.43 84.4303 1481.66 81.8413 1487.01L60.0439 1532.05C57.4548 1537.4 57.38 1543.63 59.8397 1549.04L82.0454 1597.89C84.5051 1603.31 84.4303 1609.53 81.8413 1614.88L60.0439 1659.93C57.4548 1665.28 57.38 1671.51 59.8397 1676.92L82.0454 1725.77C84.5051 1731.18 84.4303 1737.41 81.8412 1742.76L60.0439 1787.8C57.4548 1793.15 57.38 1799.38 59.8397 1804.79L82.0454 1853.64C84.5051 1859.06 84.4303 1865.28 81.8412 1870.63L60.0438 1915.68C57.4548 1921.03 57.38 1927.26 59.8397 1932.67L82.0454 1981.52C84.5051 1986.93 84.4303 1993.16 81.8412 1998.51L60.0438 2043.55C57.4548 2048.9 57.38 2055.13 59.8397 2060.54L82.0455 2109.39C84.5052 2114.81 84.4304 2121.03 81.8413 2126.38L60.0439 2171.43C57.4548 2176.78 57.38 2183.01 59.8398 2188.42L82.0455 2237.27C84.5052 2242.68 84.4304 2248.91 81.8413 2254.26L60.0439 2299.3C57.4548 2304.65 57.38 2310.88 59.8398 2316.29L82.0455 2365.14C84.5052 2370.56 84.4304 2376.78 81.8413 2382.13L60.0439 2427.18C57.4548 2432.53 57.38 2438.76 59.8398 2444.17L82.0455 2493.02C84.5052 2498.43 84.4304 2504.66 81.8413 2510.01L60.0439 2555.05C57.4548 2560.4 57.38 2566.63 59.8398 2572.04L82.0454 2620.89C84.5052 2626.31 84.4303 2632.53 81.8413 2637.88L60.0439 2682.93C57.4548 2688.28 57.38 2694.51 59.8398 2699.92L82.0454 2748.77C84.5052 2754.18 84.4303 2760.41 81.8413 2765.76L60.0439 2810.8C57.4548 2816.15 57.38 2822.38 59.8397 2827.79L82.0454 2876.64C84.5052 2882.06 84.4303 2888.28 81.8413 2893.63L60.0438 2938.68C57.4548 2944.03 57.38 2950.26 59.8397 2955.67L82.0454 3004.52C84.5052 3009.93 84.4303 3016.16 81.8413 3021.51L60.0438 3066.55C57.4548 3071.9 57.38 3078.13 59.8397 3083.54L82.0454 3132.39C84.5052 3137.81 84.4303 3144.03 81.8413 3149.38L60.0439 3194.43C57.4548 3199.78 57.38 3206.01 59.8397 3211.42L82.0454 3260.27C84.5051 3265.68 84.4303 3271.91 81.8413 3277.26L60.0439 3322.3C57.4548 3327.66 57.38 3333.88 59.8397 3339.29L82.0454 3388.14C84.5051 3393.56 84.4303 3399.78 81.8412 3405.13L60.0439 3450.18C57.4548 3455.53 57.38 3461.76 59.8397 3467.17L82.0454 3516.02C84.5051 3521.43 84.4303 3527.66 81.8412 3533.01L60.0439 3578.05C57.4548 3583.41 57.38 3589.63 59.8397 3595.04L82.0454 3643.89C84.5051 3649.31 84.4303 3655.53 81.8412 3660.88L60.0439 3705.93C57.4548 3711.28 57.38 3717.51 59.8397 3722.92L82.0454 3771.77C84.5051 3777.18 84.4303 3783.41 81.8412 3788.76L60.0439 3833.8C57.4548 3839.16 57.38 3845.38 59.8397 3850.79L82.0454 3899.64C84.5051 3905.06 84.4303 3911.28 81.8412 3916.63L60.0439 3961.68C57.4548 3967.03 57.38 3973.26 59.8397 3978.67L82.0454 4027.52C84.5051 4032.93 84.4303 4039.16 81.8412 4044.51L55.9572 4098" stroke="#FFCAE9" stroke-opacity="0.7" stroke-width="10" stroke-linecap="round"/>
</svg>
