<svg width="1432" height="23" viewBox="0 0 1432 23" fill="none" xmlns="http://www.w3.org/2000/svg">
<circle cx="11.5" cy="11.5" r="11.5" fill="white"/>
<circle cx="56.5" cy="11.5" r="11.5" fill="white"/>
<circle cx="102.5" cy="11.5" r="11.5" fill="white"/>
<circle cx="147.5" cy="11.5" r="11.5" fill="white"/>
<circle cx="193.5" cy="11.5" r="11.5" fill="white"/>
<circle cx="238.5" cy="11.5" r="11.5" fill="white"/>
<ellipse cx="284" cy="11.5" rx="11" ry="11.5" fill="white"/>
<circle cx="329.5" cy="11.5" r="11.5" fill="white"/>
<circle cx="11.5" cy="11.5" r="11.5" fill="white"/>
<circle cx="56.5" cy="11.5" r="11.5" fill="white"/>
<circle cx="102.5" cy="11.5" r="11.5" fill="white"/>
<circle cx="147.5" cy="11.5" r="11.5" fill="white"/>
<circle cx="193.5" cy="11.5" r="11.5" fill="white"/>
<circle cx="238.5" cy="11.5" r="11.5" fill="white"/>
<ellipse cx="284" cy="11.5" rx="11" ry="11.5" fill="white"/>
<circle cx="329.5" cy="11.5" r="11.5" fill="white"/>
<ellipse cx="375" cy="11.5" rx="11" ry="11.5" fill="white"/>
<circle cx="420.5" cy="11.5" r="11.5" fill="white"/>
<ellipse cx="466" cy="11.5" rx="11" ry="11.5" fill="white"/>
<circle cx="511.5" cy="11.5" r="11.5" fill="white"/>
<ellipse cx="557" cy="11.5" rx="11" ry="11.5" fill="white"/>
<circle cx="602.5" cy="11.5" r="11.5" fill="white"/>
<circle cx="647.5" cy="11.5" r="11.5" fill="white"/>
<circle cx="693.5" cy="11.5" r="11.5" fill="white"/>
<ellipse cx="375" cy="11.5" rx="11" ry="11.5" fill="white"/>
<circle cx="420.5" cy="11.5" r="11.5" fill="white"/>
<ellipse cx="466" cy="11.5" rx="11" ry="11.5" fill="white"/>
<circle cx="511.5" cy="11.5" r="11.5" fill="white"/>
<ellipse cx="557" cy="11.5" rx="11" ry="11.5" fill="white"/>
<circle cx="602.5" cy="11.5" r="11.5" fill="white"/>
<circle cx="647.5" cy="11.5" r="11.5" fill="white"/>
<circle cx="693.5" cy="11.5" r="11.5" fill="white"/>
<circle cx="738.5" cy="11.5" r="11.5" fill="white"/>
<circle cx="784.5" cy="11.5" r="11.5" fill="white"/>
<circle cx="829.5" cy="11.5" r="11.5" fill="white"/>
<ellipse cx="875" cy="11.5" rx="11" ry="11.5" fill="white"/>
<circle cx="920.5" cy="11.5" r="11.5" fill="white"/>
<ellipse cx="966" cy="11.5" rx="11" ry="11.5" fill="white"/>
<circle cx="1011.5" cy="11.5" r="11.5" fill="white"/>
<ellipse cx="1057" cy="11.5" rx="11" ry="11.5" fill="white"/>
<circle cx="738.5" cy="11.5" r="11.5" fill="white"/>
<circle cx="784.5" cy="11.5" r="11.5" fill="white"/>
<circle cx="829.5" cy="11.5" r="11.5" fill="white"/>
<ellipse cx="875" cy="11.5" rx="11" ry="11.5" fill="white"/>
<circle cx="920.5" cy="11.5" r="11.5" fill="white"/>
<ellipse cx="966" cy="11.5" rx="11" ry="11.5" fill="white"/>
<circle cx="1011.5" cy="11.5" r="11.5" fill="white"/>
<ellipse cx="1057" cy="11.5" rx="11" ry="11.5" fill="white"/>
<circle cx="1102.5" cy="11.5" r="11.5" fill="white"/>
<circle cx="1147.5" cy="11.5" r="11.5" fill="white"/>
<circle cx="1193.5" cy="11.5" r="11.5" fill="white"/>
<circle cx="1238.5" cy="11.5" r="11.5" fill="white"/>
<circle cx="1284.5" cy="11.5" r="11.5" fill="white"/>
<circle cx="1329.5" cy="11.5" r="11.5" fill="white"/>
<ellipse cx="1375" cy="11.5" rx="11" ry="11.5" fill="white"/>
<circle cx="1420.5" cy="11.5" r="11.5" fill="white"/>
<circle cx="1102.5" cy="11.5" r="11.5" fill="white"/>
<circle cx="1147.5" cy="11.5" r="11.5" fill="white"/>
<circle cx="1193.5" cy="11.5" r="11.5" fill="white"/>
<circle cx="1238.5" cy="11.5" r="11.5" fill="white"/>
<circle cx="1284.5" cy="11.5" r="11.5" fill="white"/>
<circle cx="1329.5" cy="11.5" r="11.5" fill="white"/>
<ellipse cx="1375" cy="11.5" rx="11" ry="11.5" fill="white"/>
<circle cx="1420.5" cy="11.5" r="11.5" fill="white"/>
<circle cx="11.5" cy="11.5" r="11.5" fill="white"/>
<circle cx="56.5" cy="11.5" r="11.5" fill="white"/>
<circle cx="102.5" cy="11.5" r="11.5" fill="white"/>
<circle cx="147.5" cy="11.5" r="11.5" fill="white"/>
<circle cx="193.5" cy="11.5" r="11.5" fill="white"/>
<circle cx="238.5" cy="11.5" r="11.5" fill="white"/>
<ellipse cx="284" cy="11.5" rx="11" ry="11.5" fill="white"/>
<circle cx="329.5" cy="11.5" r="11.5" fill="white"/>
<circle cx="11.5" cy="11.5" r="11.5" fill="white"/>
<circle cx="56.5" cy="11.5" r="11.5" fill="white"/>
<circle cx="102.5" cy="11.5" r="11.5" fill="white"/>
<circle cx="147.5" cy="11.5" r="11.5" fill="white"/>
<circle cx="193.5" cy="11.5" r="11.5" fill="white"/>
<circle cx="238.5" cy="11.5" r="11.5" fill="white"/>
<ellipse cx="284" cy="11.5" rx="11" ry="11.5" fill="white"/>
<circle cx="329.5" cy="11.5" r="11.5" fill="white"/>
<ellipse cx="375" cy="11.5" rx="11" ry="11.5" fill="white"/>
<circle cx="420.5" cy="11.5" r="11.5" fill="white"/>
<ellipse cx="466" cy="11.5" rx="11" ry="11.5" fill="white"/>
<circle cx="511.5" cy="11.5" r="11.5" fill="white"/>
<ellipse cx="557" cy="11.5" rx="11" ry="11.5" fill="white"/>
<circle cx="602.5" cy="11.5" r="11.5" fill="white"/>
<circle cx="647.5" cy="11.5" r="11.5" fill="white"/>
<circle cx="693.5" cy="11.5" r="11.5" fill="white"/>
<ellipse cx="375" cy="11.5" rx="11" ry="11.5" fill="white"/>
<circle cx="420.5" cy="11.5" r="11.5" fill="white"/>
<ellipse cx="466" cy="11.5" rx="11" ry="11.5" fill="white"/>
<circle cx="511.5" cy="11.5" r="11.5" fill="white"/>
<ellipse cx="557" cy="11.5" rx="11" ry="11.5" fill="white"/>
<circle cx="602.5" cy="11.5" r="11.5" fill="white"/>
<circle cx="647.5" cy="11.5" r="11.5" fill="white"/>
<circle cx="693.5" cy="11.5" r="11.5" fill="white"/>
<circle cx="738.5" cy="11.5" r="11.5" fill="white"/>
<circle cx="784.5" cy="11.5" r="11.5" fill="white"/>
<circle cx="829.5" cy="11.5" r="11.5" fill="white"/>
<ellipse cx="875" cy="11.5" rx="11" ry="11.5" fill="white"/>
<circle cx="920.5" cy="11.5" r="11.5" fill="white"/>
<ellipse cx="966" cy="11.5" rx="11" ry="11.5" fill="white"/>
<circle cx="1011.5" cy="11.5" r="11.5" fill="white"/>
<ellipse cx="1057" cy="11.5" rx="11" ry="11.5" fill="white"/>
<circle cx="738.5" cy="11.5" r="11.5" fill="white"/>
<circle cx="784.5" cy="11.5" r="11.5" fill="white"/>
<circle cx="829.5" cy="11.5" r="11.5" fill="white"/>
<ellipse cx="875" cy="11.5" rx="11" ry="11.5" fill="white"/>
<circle cx="920.5" cy="11.5" r="11.5" fill="white"/>
<ellipse cx="966" cy="11.5" rx="11" ry="11.5" fill="white"/>
<circle cx="1011.5" cy="11.5" r="11.5" fill="white"/>
<ellipse cx="1057" cy="11.5" rx="11" ry="11.5" fill="white"/>
<circle cx="1102.5" cy="11.5" r="11.5" fill="white"/>
<circle cx="1147.5" cy="11.5" r="11.5" fill="white"/>
<circle cx="1193.5" cy="11.5" r="11.5" fill="white"/>
<circle cx="1238.5" cy="11.5" r="11.5" fill="white"/>
<circle cx="1284.5" cy="11.5" r="11.5" fill="white"/>
<circle cx="1329.5" cy="11.5" r="11.5" fill="white"/>
<ellipse cx="1375" cy="11.5" rx="11" ry="11.5" fill="white"/>
<circle cx="1420.5" cy="11.5" r="11.5" fill="white"/>
<circle cx="1102.5" cy="11.5" r="11.5" fill="white"/>
<circle cx="1147.5" cy="11.5" r="11.5" fill="white"/>
<circle cx="1193.5" cy="11.5" r="11.5" fill="white"/>
<circle cx="1238.5" cy="11.5" r="11.5" fill="white"/>
<circle cx="1284.5" cy="11.5" r="11.5" fill="white"/>
<circle cx="1329.5" cy="11.5" r="11.5" fill="white"/>
<ellipse cx="1375" cy="11.5" rx="11" ry="11.5" fill="white"/>
<circle cx="1420.5" cy="11.5" r="11.5" fill="white"/>
</svg>
