<svg width="126" height="2058" viewBox="0 0 126 2058" fill="none" xmlns="http://www.w3.org/2000/svg">
<path d="M92.9143 6L119.002 63.394C121.462 68.8054 121.387 75.0306 118.798 80.3813L97.0009 125.429C94.4119 130.78 94.337 137.005 96.7968 142.417L119.002 191.269C121.462 196.68 121.387 202.906 118.798 208.256L97.0009 253.304C94.4118 258.655 94.337 264.88 96.7968 270.292L119.002 319.144C121.462 324.555 121.387 330.781 118.798 336.131L97.0009 381.179C94.4118 386.53 94.337 392.755 96.7968 398.167L119.002 447.019C121.462 452.43 121.387 458.656 118.798 464.006L97.0009 509.054C94.4118 514.405 94.337 520.63 96.7968 526.042L119.002 574.894C121.462 580.305 121.387 586.531 118.798 591.881L97.0009 636.929C94.4118 642.28 94.337 648.505 96.7967 653.917L119.002 702.769C121.462 708.18 121.387 714.406 118.798 719.756L97.0009 764.804C94.4118 770.155 94.337 776.38 96.7967 781.792L119.002 830.644C121.462 836.055 121.387 842.281 118.798 847.631L97.0009 892.679C94.4118 898.03 94.337 904.255 96.7967 909.667L119.002 958.519C121.462 963.93 121.387 970.156 118.798 975.506L97.0009 1020.55C94.4118 1025.9 94.337 1032.13 96.7967 1037.54L119.002 1086.39C121.462 1091.81 121.387 1098.03 118.798 1103.38L97.0009 1148.43C94.4119 1153.78 94.337 1160.01 96.7968 1165.42L119.002 1214.27C121.462 1219.68 121.387 1225.91 118.798 1231.26L97.0009 1276.3C94.4118 1281.65 94.337 1287.88 96.7968 1293.29L119.002 1342.14C121.462 1347.56 121.387 1353.78 118.798 1359.13L97.0009 1404.18C94.4118 1409.53 94.337 1415.76 96.7968 1421.17L119.002 1470.02C121.462 1475.43 121.387 1481.66 118.798 1487.01L97.0009 1532.05C94.4118 1537.4 94.337 1543.63 96.7967 1549.04L119.002 1597.89C121.462 1603.31 121.387 1609.53 118.798 1614.88L97.0009 1659.93C94.4118 1665.28 94.337 1671.51 96.7967 1676.92L119.002 1725.77C121.462 1731.18 121.387 1737.41 118.798 1742.76L97.0009 1787.8C94.4118 1793.15 94.337 1799.38 96.7967 1804.79L119.002 1853.64C121.462 1859.06 121.387 1865.28 118.798 1870.63L97.0009 1915.68C94.4118 1921.03 94.337 1927.26 96.7967 1932.67L119.002 1981.52C121.462 1986.93 121.387 1993.16 118.798 1998.51L92.9142 2052" stroke="#FFCAE9" stroke-width="10" stroke-linecap="round"/>
<path d="M48.9572 6L75.0454 63.394C77.5052 68.8054 77.4303 75.0306 74.8413 80.3813L53.0439 125.429C50.4548 130.78 50.38 137.005 52.8397 142.417L75.0454 191.269C77.5052 196.68 77.4303 202.906 74.8413 208.256L53.0439 253.304C50.4548 258.655 50.38 264.88 52.8397 270.292L75.0454 319.144C77.5051 324.555 77.4303 330.781 74.8413 336.131L53.0439 381.179C50.4548 386.53 50.38 392.755 52.8397 398.167L75.0454 447.019C77.5051 452.43 77.4303 458.656 74.8413 464.006L53.0439 509.054C50.4548 514.405 50.38 520.63 52.8397 526.042L75.0454 574.894C77.5051 580.305 77.4303 586.531 74.8413 591.881L53.0439 636.929C50.4548 642.28 50.38 648.505 52.8397 653.917L75.0454 702.769C77.5051 708.18 77.4303 714.406 74.8413 719.756L53.0439 764.804C50.4548 770.155 50.38 776.38 52.8397 781.792L75.0454 830.644C77.5051 836.055 77.4303 842.281 74.8412 847.631L53.0439 892.679C50.4548 898.03 50.38 904.255 52.8397 909.667L75.0454 958.519C77.5051 963.93 77.4303 970.156 74.8412 975.506L53.0439 1020.55C50.4548 1025.9 50.38 1032.13 52.8397 1037.54L75.0454 1086.39C77.5052 1091.81 77.4303 1098.03 74.8413 1103.38L53.0439 1148.43C50.4548 1153.78 50.38 1160.01 52.8397 1165.42L75.0454 1214.27C77.5051 1219.68 77.4303 1225.91 74.8413 1231.26L53.0439 1276.3C50.4548 1281.65 50.38 1287.88 52.8397 1293.29L75.0454 1342.14C77.5051 1347.56 77.4303 1353.78 74.8413 1359.13L53.0439 1404.18C50.4548 1409.53 50.38 1415.76 52.8397 1421.17L75.0454 1470.02C77.5051 1475.43 77.4303 1481.66 74.8413 1487.01L53.0439 1532.05C50.4548 1537.4 50.38 1543.63 52.8397 1549.04L75.0454 1597.89C77.5051 1603.31 77.4303 1609.53 74.8413 1614.88L53.0439 1659.93C50.4548 1665.28 50.38 1671.51 52.8397 1676.92L75.0454 1725.77C77.5051 1731.18 77.4303 1737.41 74.8412 1742.76L53.0439 1787.8C50.4548 1793.15 50.38 1799.38 52.8397 1804.79L75.0454 1853.64C77.5051 1859.06 77.4303 1865.28 74.8412 1870.63L53.0439 1915.68C50.4548 1921.03 50.38 1927.26 52.8397 1932.67L75.0454 1981.52C77.5051 1986.93 77.4303 1993.16 74.8412 1998.51L48.9572 2052" stroke="#FFCAE9" stroke-opacity="0.7" stroke-width="10" stroke-linecap="round"/>
<path d="M5.0002 6L31.0884 63.394C33.5481 68.8054 33.4733 75.0306 30.8843 80.3813L9.08686 125.429C6.49779 130.78 6.42297 137.005 8.88271 142.417L31.0884 191.269C33.5481 196.68 33.4733 202.906 30.8842 208.256L9.08685 253.304C6.49778 258.655 6.42297 264.88 8.8827 270.292L31.0884 319.144C33.5481 324.555 33.4733 330.781 30.8842 336.131L9.08685 381.179C6.49778 386.53 6.42296 392.755 8.88269 398.167L31.0884 447.019C33.5481 452.43 33.4733 458.656 30.8842 464.006L9.08684 509.054C6.49777 514.405 6.42296 520.63 8.88269 526.042L31.0884 574.894C33.5481 580.305 33.4733 586.531 30.8842 591.881L9.08683 636.929C6.49777 642.28 6.42295 648.505 8.88268 653.917L31.0884 702.769C33.5481 708.18 33.4733 714.406 30.8842 719.756L9.08683 764.804C6.49776 770.155 6.42295 776.38 8.88268 781.792L31.0884 830.644C33.5481 836.055 33.4733 842.281 30.8842 847.631L9.08682 892.679C6.49776 898.03 6.42294 904.255 8.88267 909.667L31.0884 958.519C33.5481 963.93 33.4733 970.156 30.8842 975.506L9.08682 1020.55C6.49775 1025.9 6.42294 1032.13 8.88267 1037.54L31.0884 1086.39C33.5481 1091.81 33.4733 1098.03 30.8842 1103.38L9.08685 1148.43C6.49779 1153.78 6.42297 1160.01 8.8827 1165.42L31.0884 1214.27C33.5481 1219.68 33.4733 1225.91 30.8842 1231.26L9.08685 1276.3C6.49778 1281.65 6.42297 1287.88 8.8827 1293.29L31.0884 1342.14C33.5481 1347.56 33.4733 1353.78 30.8842 1359.13L9.08684 1404.18C6.49778 1409.53 6.42296 1415.76 8.88269 1421.17L31.0884 1470.02C33.5481 1475.43 33.4733 1481.66 30.8842 1487.01L9.08684 1532.05C6.49777 1537.4 6.42296 1543.63 8.88269 1549.04L31.0884 1597.89C33.5481 1603.31 33.4733 1609.53 30.8842 1614.88L9.08683 1659.93C6.49777 1665.28 6.42295 1671.51 8.88268 1676.92L31.0884 1725.77C33.5481 1731.18 33.4733 1737.41 30.8842 1742.76L9.08683 1787.8C6.49776 1793.15 6.42295 1799.38 8.88268 1804.79L31.0884 1853.64C33.5481 1859.06 33.4733 1865.28 30.8842 1870.63L9.08682 1915.68C6.49776 1921.03 6.42294 1927.26 8.88267 1932.67L31.0883 1981.52C33.5481 1986.93 33.4733 1993.16 30.8842 1998.51L5.00015 2052" stroke="#FFCAE9" stroke-opacity="0.35" stroke-width="10" stroke-linecap="round"/>
</svg>
