<svg width="1180" height="1180" viewBox="0 0 1180 1180" fill="none" xmlns="http://www.w3.org/2000/svg">
<circle cx="590" cy="590" r="590" fill="#FDB2DE" fill-opacity="0.91"/>
<mask id="mask0_116_19" style="mask-type:alpha" maskUnits="userSpaceOnUse" x="0" y="0" width="1180" height="1180">
<circle cx="590" cy="590" r="590" fill="#FDB2DE" fill-opacity="0.91"/>
</mask>
<g mask="url(#mask0_116_19)">
<path d="M-51 895.5L-10.0415 876.883C-4.63013 874.423 1.59502 874.498 6.94576 877.087L36.5542 891.413C41.905 894.002 48.1301 894.077 53.5415 891.618L85.9585 876.883C91.3699 874.423 97.595 874.498 102.946 877.087L132.554 891.413C137.905 894.002 144.13 894.077 149.542 891.618L181.958 876.883C187.37 874.423 193.595 874.498 198.946 877.087L228.554 891.413C233.905 894.002 240.13 894.077 245.542 891.618L277.958 876.883C283.37 874.423 289.595 874.498 294.946 877.087L324.554 891.413C329.905 894.002 336.13 894.077 341.542 891.618L373.958 876.883C379.37 874.423 385.595 874.498 390.946 877.087L420.554 891.413C425.905 894.002 432.13 894.077 437.542 891.618L469.958 876.883C475.37 874.423 481.595 874.498 486.946 877.087L516.554 891.413C521.905 894.002 528.13 894.077 533.542 891.618L565.958 876.883C571.37 874.423 577.595 874.498 582.946 877.087L612.554 891.413C617.905 894.002 624.13 894.077 629.542 891.618L661.958 876.883C667.37 874.423 673.595 874.498 678.946 877.087L708.554 891.413C713.905 894.002 720.13 894.077 725.542 891.618L757.958 876.883C763.37 874.423 769.595 874.498 774.946 877.087L804.554 891.413C809.905 894.002 816.13 894.077 821.542 891.617L853.958 876.883C859.37 874.423 865.595 874.498 870.946 877.087L900.554 891.413C905.905 894.002 912.13 894.077 917.542 891.617L949.958 876.883C955.37 874.423 961.595 874.498 966.946 877.087L996.554 891.413C1001.9 894.002 1008.13 894.077 1013.54 891.617L1045.96 876.883C1051.37 874.423 1057.6 874.498 1062.95 877.087L1092.55 891.413C1097.9 894.002 1104.13 894.077 1109.54 891.617L1141.96 876.883C1147.37 874.423 1153.6 874.498 1158.95 877.087L1188.55 891.413C1193.9 894.002 1200.13 894.077 1205.54 891.617L1237.96 876.883C1243.37 874.423 1249.6 874.498 1254.95 877.087L1284.55 891.413C1289.9 894.002 1296.13 894.077 1301.54 891.617L1333.96 876.883C1339.37 874.423 1345.6 874.498 1350.95 877.087L1380.55 891.413C1385.9 894.002 1392.13 894.077 1397.54 891.617L1429.96 876.883C1435.37 874.423 1441.6 874.498 1446.95 877.087L1485 895.5" stroke="white" stroke-width="7" stroke-linecap="round"/>
<path d="M-51 -0.499966L-10.0415 -19.1175C-4.63013 -21.5772 1.59502 -21.5024 6.94576 -18.9133L36.5542 -4.58663C41.905 -1.99756 48.1301 -1.92275 53.5415 -4.38248L85.9585 -19.1175C91.3699 -21.5772 97.595 -21.5024 102.946 -18.9133L132.554 -4.58663C137.905 -1.99756 144.13 -1.92275 149.542 -4.38248L181.958 -19.1175C187.37 -21.5772 193.595 -21.5024 198.946 -18.9133L228.554 -4.58663C233.905 -1.99756 240.13 -1.92275 245.542 -4.38248L277.958 -19.1175C283.37 -21.5772 289.595 -21.5024 294.946 -18.9133L324.554 -4.58663C329.905 -1.99756 336.13 -1.92275 341.542 -4.38248L373.958 -19.1175C379.37 -21.5772 385.595 -21.5024 390.946 -18.9133L420.554 -4.58663C425.905 -1.99756 432.13 -1.92275 437.542 -4.38248L469.958 -19.1175C475.37 -21.5772 481.595 -21.5024 486.946 -18.9133L516.554 -4.58663C521.905 -1.99756 528.13 -1.92275 533.542 -4.38248L565.958 -19.1175C571.37 -21.5772 577.595 -21.5024 582.946 -18.9133L612.554 -4.58663C617.905 -1.99756 624.13 -1.92275 629.542 -4.38248L661.958 -19.1175C667.37 -21.5772 673.595 -21.5024 678.946 -18.9133L708.554 -4.58663C713.905 -1.99756 720.13 -1.92275 725.542 -4.38248L757.958 -19.1175C763.37 -21.5772 769.595 -21.5024 774.946 -18.9133L804.554 -4.58666C809.905 -1.99759 816.13 -1.92278 821.542 -4.38251L853.958 -19.1175C859.37 -21.5772 865.595 -21.5024 870.946 -18.9133L900.554 -4.58666C905.905 -1.99759 912.13 -1.92278 917.542 -4.38251L949.958 -19.1175C955.37 -21.5772 961.595 -21.5024 966.946 -18.9133L996.554 -4.58666C1001.9 -1.99759 1008.13 -1.92278 1013.54 -4.38251L1045.96 -19.1175C1051.37 -21.5772 1057.6 -21.5024 1062.95 -18.9133L1092.55 -4.58666C1097.9 -1.99759 1104.13 -1.92278 1109.54 -4.38251L1141.96 -19.1175C1147.37 -21.5772 1153.6 -21.5024 1158.95 -18.9133L1188.55 -4.58666C1193.9 -1.99759 1200.13 -1.92278 1205.54 -4.38251L1237.96 -19.1175C1243.37 -21.5772 1249.6 -21.5024 1254.95 -18.9133L1284.55 -4.58666C1289.9 -1.99759 1296.13 -1.92278 1301.54 -4.38251L1333.96 -19.1175C1339.37 -21.5772 1345.6 -21.5024 1350.95 -18.9133L1380.55 -4.58666C1385.9 -1.99759 1392.13 -1.92278 1397.54 -4.38251L1429.96 -19.1175C1435.37 -21.5772 1441.6 -21.5024 1446.95 -18.9133L1485 -0.5" stroke="white" stroke-width="7" stroke-linecap="round"/>
<path d="M-51 935.5L-10.0415 916.883C-4.63013 914.423 1.59502 914.498 6.94576 917.087L36.5542 931.413C41.905 934.002 48.1301 934.077 53.5415 931.618L85.9585 916.883C91.3699 914.423 97.595 914.498 102.946 917.087L132.554 931.413C137.905 934.002 144.13 934.077 149.542 931.618L181.958 916.883C187.37 914.423 193.595 914.498 198.946 917.087L228.554 931.413C233.905 934.002 240.13 934.077 245.542 931.618L277.958 916.883C283.37 914.423 289.595 914.498 294.946 917.087L324.554 931.413C329.905 934.002 336.13 934.077 341.542 931.618L373.958 916.883C379.37 914.423 385.595 914.498 390.946 917.087L420.554 931.413C425.905 934.002 432.13 934.077 437.542 931.618L469.958 916.883C475.37 914.423 481.595 914.498 486.946 917.087L516.554 931.413C521.905 934.002 528.13 934.077 533.542 931.618L565.958 916.883C571.37 914.423 577.595 914.498 582.946 917.087L612.554 931.413C617.905 934.002 624.13 934.077 629.542 931.618L661.958 916.883C667.37 914.423 673.595 914.498 678.946 917.087L708.554 931.413C713.905 934.002 720.13 934.077 725.542 931.618L757.958 916.883C763.37 914.423 769.595 914.498 774.946 917.087L804.554 931.413C809.905 934.002 816.13 934.077 821.542 931.617L853.958 916.883C859.37 914.423 865.595 914.498 870.946 917.087L900.554 931.413C905.905 934.002 912.13 934.077 917.542 931.617L949.958 916.883C955.37 914.423 961.595 914.498 966.946 917.087L996.554 931.413C1001.9 934.002 1008.13 934.077 1013.54 931.617L1045.96 916.883C1051.37 914.423 1057.6 914.498 1062.95 917.087L1092.55 931.413C1097.9 934.002 1104.13 934.077 1109.54 931.617L1141.96 916.883C1147.37 914.423 1153.6 914.498 1158.95 917.087L1188.55 931.413C1193.9 934.002 1200.13 934.077 1205.54 931.617L1237.96 916.883C1243.37 914.423 1249.6 914.498 1254.95 917.087L1284.55 931.413C1289.9 934.002 1296.13 934.077 1301.54 931.617L1333.96 916.883C1339.37 914.423 1345.6 914.498 1350.95 917.087L1380.55 931.413C1385.9 934.002 1392.13 934.077 1397.54 931.617L1429.96 916.883C1435.37 914.423 1441.6 914.498 1446.95 917.087L1485 935.5" stroke="white" stroke-width="7" stroke-linecap="round"/>
<path d="M-51 1055.5L-10.0415 1036.88C-4.63013 1034.42 1.59502 1034.5 6.94576 1037.09L36.5542 1051.41C41.905 1054 48.1301 1054.08 53.5415 1051.62L85.9585 1036.88C91.3699 1034.42 97.595 1034.5 102.946 1037.09L132.554 1051.41C137.905 1054 144.13 1054.08 149.542 1051.62L181.958 1036.88C187.37 1034.42 193.595 1034.5 198.946 1037.09L228.554 1051.41C233.905 1054 240.13 1054.08 245.542 1051.62L277.958 1036.88C283.37 1034.42 289.595 1034.5 294.946 1037.09L324.554 1051.41C329.905 1054 336.13 1054.08 341.542 1051.62L373.958 1036.88C379.37 1034.42 385.595 1034.5 390.946 1037.09L420.554 1051.41C425.905 1054 432.13 1054.08 437.542 1051.62L469.958 1036.88C475.37 1034.42 481.595 1034.5 486.946 1037.09L516.554 1051.41C521.905 1054 528.13 1054.08 533.542 1051.62L565.958 1036.88C571.37 1034.42 577.595 1034.5 582.946 1037.09L612.554 1051.41C617.905 1054 624.13 1054.08 629.542 1051.62L661.958 1036.88C667.37 1034.42 673.595 1034.5 678.946 1037.09L708.554 1051.41C713.905 1054 720.13 1054.08 725.542 1051.62L757.958 1036.88C763.37 1034.42 769.595 1034.5 774.946 1037.09L804.554 1051.41C809.905 1054 816.13 1054.08 821.542 1051.62L853.958 1036.88C859.37 1034.42 865.595 1034.5 870.946 1037.09L900.554 1051.41C905.905 1054 912.13 1054.08 917.542 1051.62L949.958 1036.88C955.37 1034.42 961.595 1034.5 966.946 1037.09L996.554 1051.41C1001.9 1054 1008.13 1054.08 1013.54 1051.62L1045.96 1036.88C1051.37 1034.42 1057.6 1034.5 1062.95 1037.09L1092.55 1051.41C1097.9 1054 1104.13 1054.08 1109.54 1051.62L1141.96 1036.88C1147.37 1034.42 1153.6 1034.5 1158.95 1037.09L1188.55 1051.41C1193.9 1054 1200.13 1054.08 1205.54 1051.62L1237.96 1036.88C1243.37 1034.42 1249.6 1034.5 1254.95 1037.09L1284.55 1051.41C1289.9 1054 1296.13 1054.08 1301.54 1051.62L1333.96 1036.88C1339.37 1034.42 1345.6 1034.5 1350.95 1037.09L1380.55 1051.41C1385.9 1054 1392.13 1054.08 1397.54 1051.62L1429.96 1036.88C1435.37 1034.42 1441.6 1034.5 1446.95 1037.09L1485 1055.5" stroke="white" stroke-width="7" stroke-linecap="round"/>
<path d="M-51 975.5L-10.0415 956.883C-4.63013 954.423 1.59502 954.498 6.94576 957.087L36.5542 971.413C41.905 974.002 48.1301 974.077 53.5415 971.618L85.9585 956.883C91.3699 954.423 97.595 954.498 102.946 957.087L132.554 971.413C137.905 974.002 144.13 974.077 149.542 971.618L181.958 956.883C187.37 954.423 193.595 954.498 198.946 957.087L228.554 971.413C233.905 974.002 240.13 974.077 245.542 971.618L277.958 956.883C283.37 954.423 289.595 954.498 294.946 957.087L324.554 971.413C329.905 974.002 336.13 974.077 341.542 971.618L373.958 956.883C379.37 954.423 385.595 954.498 390.946 957.087L420.554 971.413C425.905 974.002 432.13 974.077 437.542 971.618L469.958 956.883C475.37 954.423 481.595 954.498 486.946 957.087L516.554 971.413C521.905 974.002 528.13 974.077 533.542 971.618L565.958 956.883C571.37 954.423 577.595 954.498 582.946 957.087L612.554 971.413C617.905 974.002 624.13 974.077 629.542 971.618L661.958 956.883C667.37 954.423 673.595 954.498 678.946 957.087L708.554 971.413C713.905 974.002 720.13 974.077 725.542 971.618L757.958 956.883C763.37 954.423 769.595 954.498 774.946 957.087L804.554 971.413C809.905 974.002 816.13 974.077 821.542 971.617L853.958 956.883C859.37 954.423 865.595 954.498 870.946 957.087L900.554 971.413C905.905 974.002 912.13 974.077 917.542 971.617L949.958 956.883C955.37 954.423 961.595 954.498 966.946 957.087L996.554 971.413C1001.9 974.002 1008.13 974.077 1013.54 971.617L1045.96 956.883C1051.37 954.423 1057.6 954.498 1062.95 957.087L1092.55 971.413C1097.9 974.002 1104.13 974.077 1109.54 971.617L1141.96 956.883C1147.37 954.423 1153.6 954.498 1158.95 957.087L1188.55 971.413C1193.9 974.002 1200.13 974.077 1205.54 971.617L1237.96 956.883C1243.37 954.423 1249.6 954.498 1254.95 957.087L1284.55 971.413C1289.9 974.002 1296.13 974.077 1301.54 971.617L1333.96 956.883C1339.37 954.423 1345.6 954.498 1350.95 957.087L1380.55 971.413C1385.9 974.002 1392.13 974.077 1397.54 971.617L1429.96 956.883C1435.37 954.423 1441.6 954.498 1446.95 957.087L1485 975.5" stroke="white" stroke-width="7" stroke-linecap="round"/>
<path d="M-51 855.5L-10.0415 836.883C-4.63013 834.423 1.59502 834.498 6.94576 837.087L36.5542 851.413C41.905 854.002 48.1301 854.077 53.5415 851.618L85.9585 836.883C91.3699 834.423 97.595 834.498 102.946 837.087L132.554 851.413C137.905 854.002 144.13 854.077 149.542 851.618L181.958 836.883C187.37 834.423 193.595 834.498 198.946 837.087L228.554 851.413C233.905 854.002 240.13 854.077 245.542 851.618L277.958 836.883C283.37 834.423 289.595 834.498 294.946 837.087L324.554 851.413C329.905 854.002 336.13 854.077 341.542 851.618L373.958 836.883C379.37 834.423 385.595 834.498 390.946 837.087L420.554 851.413C425.905 854.002 432.13 854.077 437.542 851.618L469.958 836.883C475.37 834.423 481.595 834.498 486.946 837.087L516.554 851.413C521.905 854.002 528.13 854.077 533.542 851.618L565.958 836.883C571.37 834.423 577.595 834.498 582.946 837.087L612.554 851.413C617.905 854.002 624.13 854.077 629.542 851.618L661.958 836.883C667.37 834.423 673.595 834.498 678.946 837.087L708.554 851.413C713.905 854.002 720.13 854.077 725.542 851.618L757.958 836.883C763.37 834.423 769.595 834.498 774.946 837.087L804.554 851.413C809.905 854.002 816.13 854.077 821.542 851.617L853.958 836.883C859.37 834.423 865.595 834.498 870.946 837.087L900.554 851.413C905.905 854.002 912.13 854.077 917.542 851.617L949.958 836.883C955.37 834.423 961.595 834.498 966.946 837.087L996.554 851.413C1001.9 854.002 1008.13 854.077 1013.54 851.617L1045.96 836.883C1051.37 834.423 1057.6 834.498 1062.95 837.087L1092.55 851.413C1097.9 854.002 1104.13 854.077 1109.54 851.617L1141.96 836.883C1147.37 834.423 1153.6 834.498 1158.95 837.087L1188.55 851.413C1193.9 854.002 1200.13 854.077 1205.54 851.617L1237.96 836.883C1243.37 834.423 1249.6 834.498 1254.95 837.087L1284.55 851.413C1289.9 854.002 1296.13 854.077 1301.54 851.617L1333.96 836.883C1339.37 834.423 1345.6 834.498 1350.95 837.087L1380.55 851.413C1385.9 854.002 1392.13 854.077 1397.54 851.617L1429.96 836.883C1435.37 834.423 1441.6 834.498 1446.95 837.087L1485 855.5" stroke="white" stroke-width="7" stroke-linecap="round"/>
<path d="M-51 815.5L-10.0415 796.883C-4.63013 794.423 1.59502 794.498 6.94576 797.087L36.5542 811.413C41.905 814.002 48.1301 814.077 53.5415 811.618L85.9585 796.883C91.3699 794.423 97.595 794.498 102.946 797.087L132.554 811.413C137.905 814.002 144.13 814.077 149.542 811.618L181.958 796.883C187.37 794.423 193.595 794.498 198.946 797.087L228.554 811.413C233.905 814.002 240.13 814.077 245.542 811.618L277.958 796.883C283.37 794.423 289.595 794.498 294.946 797.087L324.554 811.413C329.905 814.002 336.13 814.077 341.542 811.618L373.958 796.883C379.37 794.423 385.595 794.498 390.946 797.087L420.554 811.413C425.905 814.002 432.13 814.077 437.542 811.618L469.958 796.883C475.37 794.423 481.595 794.498 486.946 797.087L516.554 811.413C521.905 814.002 528.13 814.077 533.542 811.618L565.958 796.883C571.37 794.423 577.595 794.498 582.946 797.087L612.554 811.413C617.905 814.002 624.13 814.077 629.542 811.618L661.958 796.883C667.37 794.423 673.595 794.498 678.946 797.087L708.554 811.413C713.905 814.002 720.13 814.077 725.542 811.618L757.958 796.883C763.37 794.423 769.595 794.498 774.946 797.087L804.554 811.413C809.905 814.002 816.13 814.077 821.542 811.617L853.958 796.883C859.37 794.423 865.595 794.498 870.946 797.087L900.554 811.413C905.905 814.002 912.13 814.077 917.542 811.617L949.958 796.883C955.37 794.423 961.595 794.498 966.946 797.087L996.554 811.413C1001.9 814.002 1008.13 814.077 1013.54 811.617L1045.96 796.883C1051.37 794.423 1057.6 794.498 1062.95 797.087L1092.55 811.413C1097.9 814.002 1104.13 814.077 1109.54 811.617L1141.96 796.883C1147.37 794.423 1153.6 794.498 1158.95 797.087L1188.55 811.413C1193.9 814.002 1200.13 814.077 1205.54 811.617L1237.96 796.883C1243.37 794.423 1249.6 794.498 1254.95 797.087L1284.55 811.413C1289.9 814.002 1296.13 814.077 1301.54 811.617L1333.96 796.883C1339.37 794.423 1345.6 794.498 1350.95 797.087L1380.55 811.413C1385.9 814.002 1392.13 814.077 1397.54 811.617L1429.96 796.883C1435.37 794.423 1441.6 794.498 1446.95 797.087L1485 815.5" stroke="white" stroke-width="7" stroke-linecap="round"/>
<path d="M-51 775.5L-10.0415 756.883C-4.63013 754.423 1.59502 754.498 6.94576 757.087L36.5542 771.413C41.905 774.002 48.1301 774.077 53.5415 771.618L85.9585 756.883C91.3699 754.423 97.595 754.498 102.946 757.087L132.554 771.413C137.905 774.002 144.13 774.077 149.542 771.618L181.958 756.883C187.37 754.423 193.595 754.498 198.946 757.087L228.554 771.413C233.905 774.002 240.13 774.077 245.542 771.618L277.958 756.883C283.37 754.423 289.595 754.498 294.946 757.087L324.554 771.413C329.905 774.002 336.13 774.077 341.542 771.618L373.958 756.883C379.37 754.423 385.595 754.498 390.946 757.087L420.554 771.413C425.905 774.002 432.13 774.077 437.542 771.618L469.958 756.883C475.37 754.423 481.595 754.498 486.946 757.087L516.554 771.413C521.905 774.002 528.13 774.077 533.542 771.618L565.958 756.883C571.37 754.423 577.595 754.498 582.946 757.087L612.554 771.413C617.905 774.002 624.13 774.077 629.542 771.618L661.958 756.883C667.37 754.423 673.595 754.498 678.946 757.087L708.554 771.413C713.905 774.002 720.13 774.077 725.542 771.618L757.958 756.883C763.37 754.423 769.595 754.498 774.946 757.087L804.554 771.413C809.905 774.002 816.13 774.077 821.542 771.617L853.958 756.883C859.37 754.423 865.595 754.498 870.946 757.087L900.554 771.413C905.905 774.002 912.13 774.077 917.542 771.617L949.958 756.883C955.37 754.423 961.595 754.498 966.946 757.087L996.554 771.413C1001.9 774.002 1008.13 774.077 1013.54 771.617L1045.96 756.883C1051.37 754.423 1057.6 754.498 1062.95 757.087L1092.55 771.413C1097.9 774.002 1104.13 774.077 1109.54 771.617L1141.96 756.883C1147.37 754.423 1153.6 754.498 1158.95 757.087L1188.55 771.413C1193.9 774.002 1200.13 774.077 1205.54 771.617L1237.96 756.883C1243.37 754.423 1249.6 754.498 1254.95 757.087L1284.55 771.413C1289.9 774.002 1296.13 774.077 1301.54 771.617L1333.96 756.883C1339.37 754.423 1345.6 754.498 1350.95 757.087L1380.55 771.413C1385.9 774.002 1392.13 774.077 1397.54 771.617L1429.96 756.883C1435.37 754.423 1441.6 754.498 1446.95 757.087L1485 775.5" stroke="white" stroke-width="7" stroke-linecap="round"/>
<path d="M-51 1015.5L-10.0415 996.883C-4.63013 994.423 1.59502 994.498 6.94576 997.087L36.5542 1011.41C41.905 1014 48.1301 1014.08 53.5415 1011.62L85.9585 996.883C91.3699 994.423 97.595 994.498 102.946 997.087L132.554 1011.41C137.905 1014 144.13 1014.08 149.542 1011.62L181.958 996.883C187.37 994.423 193.595 994.498 198.946 997.087L228.554 1011.41C233.905 1014 240.13 1014.08 245.542 1011.62L277.958 996.883C283.37 994.423 289.595 994.498 294.946 997.087L324.554 1011.41C329.905 1014 336.13 1014.08 341.542 1011.62L373.958 996.883C379.37 994.423 385.595 994.498 390.946 997.087L420.554 1011.41C425.905 1014 432.13 1014.08 437.542 1011.62L469.958 996.883C475.37 994.423 481.595 994.498 486.946 997.087L516.554 1011.41C521.905 1014 528.13 1014.08 533.542 1011.62L565.958 996.883C571.37 994.423 577.595 994.498 582.946 997.087L612.554 1011.41C617.905 1014 624.13 1014.08 629.542 1011.62L661.958 996.883C667.37 994.423 673.595 994.498 678.946 997.087L708.554 1011.41C713.905 1014 720.13 1014.08 725.542 1011.62L757.958 996.883C763.37 994.423 769.595 994.498 774.946 997.087L804.554 1011.41C809.905 1014 816.13 1014.08 821.542 1011.62L853.958 996.883C859.37 994.423 865.595 994.498 870.946 997.087L900.554 1011.41C905.905 1014 912.13 1014.08 917.542 1011.62L949.958 996.883C955.37 994.423 961.595 994.498 966.946 997.087L996.554 1011.41C1001.9 1014 1008.13 1014.08 1013.54 1011.62L1045.96 996.883C1051.37 994.423 1057.6 994.498 1062.95 997.087L1092.55 1011.41C1097.9 1014 1104.13 1014.08 1109.54 1011.62L1141.96 996.883C1147.37 994.423 1153.6 994.498 1158.95 997.087L1188.55 1011.41C1193.9 1014 1200.13 1014.08 1205.54 1011.62L1237.96 996.883C1243.37 994.423 1249.6 994.498 1254.95 997.087L1284.55 1011.41C1289.9 1014 1296.13 1014.08 1301.54 1011.62L1333.96 996.883C1339.37 994.423 1345.6 994.498 1350.95 997.087L1380.55 1011.41C1385.9 1014 1392.13 1014.08 1397.54 1011.62L1429.96 996.883C1435.37 994.423 1441.6 994.498 1446.95 997.087L1485 1015.5" stroke="white" stroke-width="7" stroke-linecap="round"/>
<path d="M-51 1095.5L-10.0415 1076.88C-4.63013 1074.42 1.59502 1074.5 6.94576 1077.09L36.5542 1091.41C41.905 1094 48.1301 1094.08 53.5415 1091.62L85.9585 1076.88C91.3699 1074.42 97.595 1074.5 102.946 1077.09L132.554 1091.41C137.905 1094 144.13 1094.08 149.542 1091.62L181.958 1076.88C187.37 1074.42 193.595 1074.5 198.946 1077.09L228.554 1091.41C233.905 1094 240.13 1094.08 245.542 1091.62L277.958 1076.88C283.37 1074.42 289.595 1074.5 294.946 1077.09L324.554 1091.41C329.905 1094 336.13 1094.08 341.542 1091.62L373.958 1076.88C379.37 1074.42 385.595 1074.5 390.946 1077.09L420.554 1091.41C425.905 1094 432.13 1094.08 437.542 1091.62L469.958 1076.88C475.37 1074.42 481.595 1074.5 486.946 1077.09L516.554 1091.41C521.905 1094 528.13 1094.08 533.542 1091.62L565.958 1076.88C571.37 1074.42 577.595 1074.5 582.946 1077.09L612.554 1091.41C617.905 1094 624.13 1094.08 629.542 1091.62L661.958 1076.88C667.37 1074.42 673.595 1074.5 678.946 1077.09L708.554 1091.41C713.905 1094 720.13 1094.08 725.542 1091.62L757.958 1076.88C763.37 1074.42 769.595 1074.5 774.946 1077.09L804.554 1091.41C809.905 1094 816.13 1094.08 821.542 1091.62L853.958 1076.88C859.37 1074.42 865.595 1074.5 870.946 1077.09L900.554 1091.41C905.905 1094 912.13 1094.08 917.542 1091.62L949.958 1076.88C955.37 1074.42 961.595 1074.5 966.946 1077.09L996.554 1091.41C1001.9 1094 1008.13 1094.08 1013.54 1091.62L1045.96 1076.88C1051.37 1074.42 1057.6 1074.5 1062.95 1077.09L1092.55 1091.41C1097.9 1094 1104.13 1094.08 1109.54 1091.62L1141.96 1076.88C1147.37 1074.42 1153.6 1074.5 1158.95 1077.09L1188.55 1091.41C1193.9 1094 1200.13 1094.08 1205.54 1091.62L1237.96 1076.88C1243.37 1074.42 1249.6 1074.5 1254.95 1077.09L1284.55 1091.41C1289.9 1094 1296.13 1094.08 1301.54 1091.62L1333.96 1076.88C1339.37 1074.42 1345.6 1074.5 1350.95 1077.09L1380.55 1091.41C1385.9 1094 1392.13 1094.08 1397.54 1091.62L1429.96 1076.88C1435.37 1074.42 1441.6 1074.5 1446.95 1077.09L1485 1095.5" stroke="white" stroke-width="7" stroke-linecap="round"/>
<path d="M-51 1135.5L-10.0415 1116.88C-4.63013 1114.42 1.59502 1114.5 6.94576 1117.09L36.5542 1131.41C41.905 1134 48.1301 1134.08 53.5415 1131.62L85.9585 1116.88C91.3699 1114.42 97.595 1114.5 102.946 1117.09L132.554 1131.41C137.905 1134 144.13 1134.08 149.542 1131.62L181.958 1116.88C187.37 1114.42 193.595 1114.5 198.946 1117.09L228.554 1131.41C233.905 1134 240.13 1134.08 245.542 1131.62L277.958 1116.88C283.37 1114.42 289.595 1114.5 294.946 1117.09L324.554 1131.41C329.905 1134 336.13 1134.08 341.542 1131.62L373.958 1116.88C379.37 1114.42 385.595 1114.5 390.946 1117.09L420.554 1131.41C425.905 1134 432.13 1134.08 437.542 1131.62L469.958 1116.88C475.37 1114.42 481.595 1114.5 486.946 1117.09L516.554 1131.41C521.905 1134 528.13 1134.08 533.542 1131.62L565.958 1116.88C571.37 1114.42 577.595 1114.5 582.946 1117.09L612.554 1131.41C617.905 1134 624.13 1134.08 629.542 1131.62L661.958 1116.88C667.37 1114.42 673.595 1114.5 678.946 1117.09L708.554 1131.41C713.905 1134 720.13 1134.08 725.542 1131.62L757.958 1116.88C763.37 1114.42 769.595 1114.5 774.946 1117.09L804.554 1131.41C809.905 1134 816.13 1134.08 821.542 1131.62L853.958 1116.88C859.37 1114.42 865.595 1114.5 870.946 1117.09L900.554 1131.41C905.905 1134 912.13 1134.08 917.542 1131.62L949.958 1116.88C955.37 1114.42 961.595 1114.5 966.946 1117.09L996.554 1131.41C1001.9 1134 1008.13 1134.08 1013.54 1131.62L1045.96 1116.88C1051.37 1114.42 1057.6 1114.5 1062.95 1117.09L1092.55 1131.41C1097.9 1134 1104.13 1134.08 1109.54 1131.62L1141.96 1116.88C1147.37 1114.42 1153.6 1114.5 1158.95 1117.09L1188.55 1131.41C1193.9 1134 1200.13 1134.08 1205.54 1131.62L1237.96 1116.88C1243.37 1114.42 1249.6 1114.5 1254.95 1117.09L1284.55 1131.41C1289.9 1134 1296.13 1134.08 1301.54 1131.62L1333.96 1116.88C1339.37 1114.42 1345.6 1114.5 1350.95 1117.09L1380.55 1131.41C1385.9 1134 1392.13 1134.08 1397.54 1131.62L1429.96 1116.88C1435.37 1114.42 1441.6 1114.5 1446.95 1117.09L1485 1135.5" stroke="white" stroke-width="7" stroke-linecap="round"/>
<path d="M-51 1135.5L-10.0415 1116.88C-4.63013 1114.42 1.59502 1114.5 6.94576 1117.09L36.5542 1131.41C41.905 1134 48.1301 1134.08 53.5415 1131.62L85.9585 1116.88C91.3699 1114.42 97.595 1114.5 102.946 1117.09L132.554 1131.41C137.905 1134 144.13 1134.08 149.542 1131.62L181.958 1116.88C187.37 1114.42 193.595 1114.5 198.946 1117.09L228.554 1131.41C233.905 1134 240.13 1134.08 245.542 1131.62L277.958 1116.88C283.37 1114.42 289.595 1114.5 294.946 1117.09L324.554 1131.41C329.905 1134 336.13 1134.08 341.542 1131.62L373.958 1116.88C379.37 1114.42 385.595 1114.5 390.946 1117.09L420.554 1131.41C425.905 1134 432.13 1134.08 437.542 1131.62L469.958 1116.88C475.37 1114.42 481.595 1114.5 486.946 1117.09L516.554 1131.41C521.905 1134 528.13 1134.08 533.542 1131.62L565.958 1116.88C571.37 1114.42 577.595 1114.5 582.946 1117.09L612.554 1131.41C617.905 1134 624.13 1134.08 629.542 1131.62L661.958 1116.88C667.37 1114.42 673.595 1114.5 678.946 1117.09L708.554 1131.41C713.905 1134 720.13 1134.08 725.542 1131.62L757.958 1116.88C763.37 1114.42 769.595 1114.5 774.946 1117.09L804.554 1131.41C809.905 1134 816.13 1134.08 821.542 1131.62L853.958 1116.88C859.37 1114.42 865.595 1114.5 870.946 1117.09L900.554 1131.41C905.905 1134 912.13 1134.08 917.542 1131.62L949.958 1116.88C955.37 1114.42 961.595 1114.5 966.946 1117.09L996.554 1131.41C1001.9 1134 1008.13 1134.08 1013.54 1131.62L1045.96 1116.88C1051.37 1114.42 1057.6 1114.5 1062.95 1117.09L1092.55 1131.41C1097.9 1134 1104.13 1134.08 1109.54 1131.62L1141.96 1116.88C1147.37 1114.42 1153.6 1114.5 1158.95 1117.09L1188.55 1131.41C1193.9 1134 1200.13 1134.08 1205.54 1131.62L1237.96 1116.88C1243.37 1114.42 1249.6 1114.5 1254.95 1117.09L1284.55 1131.41C1289.9 1134 1296.13 1134.08 1301.54 1131.62L1333.96 1116.88C1339.37 1114.42 1345.6 1114.5 1350.95 1117.09L1380.55 1131.41C1385.9 1134 1392.13 1134.08 1397.54 1131.62L1429.96 1116.88C1435.37 1114.42 1441.6 1114.5 1446.95 1117.09L1485 1135.5" stroke="white" stroke-width="7" stroke-linecap="round"/>
<path d="M-51 1175.5L-10.0415 1156.88C-4.63013 1154.42 1.59502 1154.5 6.94576 1157.09L36.5542 1171.41C41.905 1174 48.1301 1174.08 53.5415 1171.62L85.9585 1156.88C91.3699 1154.42 97.595 1154.5 102.946 1157.09L132.554 1171.41C137.905 1174 144.13 1174.08 149.542 1171.62L181.958 1156.88C187.37 1154.42 193.595 1154.5 198.946 1157.09L228.554 1171.41C233.905 1174 240.13 1174.08 245.542 1171.62L277.958 1156.88C283.37 1154.42 289.595 1154.5 294.946 1157.09L324.554 1171.41C329.905 1174 336.13 1174.08 341.542 1171.62L373.958 1156.88C379.37 1154.42 385.595 1154.5 390.946 1157.09L420.554 1171.41C425.905 1174 432.13 1174.08 437.542 1171.62L469.958 1156.88C475.37 1154.42 481.595 1154.5 486.946 1157.09L516.554 1171.41C521.905 1174 528.13 1174.08 533.542 1171.62L565.958 1156.88C571.37 1154.42 577.595 1154.5 582.946 1157.09L612.554 1171.41C617.905 1174 624.13 1174.08 629.542 1171.62L661.958 1156.88C667.37 1154.42 673.595 1154.5 678.946 1157.09L708.554 1171.41C713.905 1174 720.13 1174.08 725.542 1171.62L757.958 1156.88C763.37 1154.42 769.595 1154.5 774.946 1157.09L804.554 1171.41C809.905 1174 816.13 1174.08 821.542 1171.62L853.958 1156.88C859.37 1154.42 865.595 1154.5 870.946 1157.09L900.554 1171.41C905.905 1174 912.13 1174.08 917.542 1171.62L949.958 1156.88C955.37 1154.42 961.595 1154.5 966.946 1157.09L996.554 1171.41C1001.9 1174 1008.13 1174.08 1013.54 1171.62L1045.96 1156.88C1051.37 1154.42 1057.6 1154.5 1062.95 1157.09L1092.55 1171.41C1097.9 1174 1104.13 1174.08 1109.54 1171.62L1141.96 1156.88C1147.37 1154.42 1153.6 1154.5 1158.95 1157.09L1188.55 1171.41C1193.9 1174 1200.13 1174.08 1205.54 1171.62L1237.96 1156.88C1243.37 1154.42 1249.6 1154.5 1254.95 1157.09L1284.55 1171.41C1289.9 1174 1296.13 1174.08 1301.54 1171.62L1333.96 1156.88C1339.37 1154.42 1345.6 1154.5 1350.95 1157.09L1380.55 1171.41C1385.9 1174 1392.13 1174.08 1397.54 1171.62L1429.96 1156.88C1435.37 1154.42 1441.6 1154.5 1446.95 1157.09L1485 1175.5" stroke="white" stroke-width="7" stroke-linecap="round"/>
</g>
</svg>
