<svg width="1119" height="380" viewBox="0 0 1119 380" fill="none" xmlns="http://www.w3.org/2000/svg">
<circle cx="10" cy="10" r="10" fill="white"/>
<circle cx="50" cy="10" r="10" fill="white"/>
<circle cx="90" cy="10" r="10" fill="white"/>
<circle cx="130" cy="10" r="10" fill="white"/>
<circle cx="29" cy="50" r="10" fill="white"/>
<circle cx="69" cy="50" r="10" fill="white"/>
<circle cx="109" cy="50" r="10" fill="white"/>
<circle cx="149" cy="50" r="10" fill="white"/>
<circle cx="170" cy="10" r="10" fill="white"/>
<circle cx="210" cy="10" r="10" fill="white"/>
<circle cx="250" cy="10" r="10" fill="white"/>
<circle cx="290" cy="10" r="10" fill="white"/>
<circle cx="189" cy="50" r="10" fill="white"/>
<circle cx="229" cy="50" r="10" fill="white"/>
<circle cx="269" cy="50" r="10" fill="white"/>
<circle cx="309" cy="50" r="10" fill="white"/>
<circle cx="330" cy="10" r="10" fill="white"/>
<circle cx="370" cy="10" r="10" fill="white"/>
<circle cx="410" cy="10" r="10" fill="white"/>
<circle cx="450" cy="10" r="10" fill="white"/>
<circle cx="349" cy="50" r="10" fill="white"/>
<circle cx="389" cy="50" r="10" fill="white"/>
<circle cx="429" cy="50" r="10" fill="white"/>
<circle cx="469" cy="50" r="10" fill="white"/>
<circle cx="490" cy="10" r="10" fill="white"/>
<circle cx="530" cy="10" r="10" fill="white"/>
<circle cx="570" cy="10" r="10" fill="white"/>
<circle cx="610" cy="10" r="10" fill="white"/>
<circle cx="509" cy="50" r="10" fill="white"/>
<circle cx="549" cy="50" r="10" fill="white"/>
<circle cx="589" cy="50" r="10" fill="white"/>
<circle cx="629" cy="50" r="10" fill="white"/>
<circle cx="650" cy="10" r="10" fill="white"/>
<circle cx="690" cy="10" r="10" fill="white"/>
<circle cx="730" cy="10" r="10" fill="white"/>
<circle cx="770" cy="10" r="10" fill="white"/>
<circle cx="669" cy="50" r="10" fill="white"/>
<circle cx="709" cy="50" r="10" fill="white"/>
<circle cx="749" cy="50" r="10" fill="white"/>
<circle cx="789" cy="50" r="10" fill="white"/>
<circle cx="10" cy="10" r="10" fill="white"/>
<circle cx="50" cy="10" r="10" fill="white"/>
<circle cx="90" cy="10" r="10" fill="white"/>
<circle cx="130" cy="10" r="10" fill="white"/>
<circle cx="29" cy="50" r="10" fill="white"/>
<circle cx="69" cy="50" r="10" fill="white"/>
<circle cx="109" cy="50" r="10" fill="white"/>
<circle cx="149" cy="50" r="10" fill="white"/>
<circle cx="170" cy="10" r="10" fill="white"/>
<circle cx="210" cy="10" r="10" fill="white"/>
<circle cx="250" cy="10" r="10" fill="white"/>
<circle cx="290" cy="10" r="10" fill="white"/>
<circle cx="189" cy="50" r="10" fill="white"/>
<circle cx="229" cy="50" r="10" fill="white"/>
<circle cx="269" cy="50" r="10" fill="white"/>
<circle cx="309" cy="50" r="10" fill="white"/>
<circle cx="330" cy="10" r="10" fill="white"/>
<circle cx="370" cy="10" r="10" fill="white"/>
<circle cx="410" cy="10" r="10" fill="white"/>
<circle cx="450" cy="10" r="10" fill="white"/>
<circle cx="349" cy="50" r="10" fill="white"/>
<circle cx="389" cy="50" r="10" fill="white"/>
<circle cx="429" cy="50" r="10" fill="white"/>
<circle cx="469" cy="50" r="10" fill="white"/>
<circle cx="490" cy="10" r="10" fill="white"/>
<circle cx="530" cy="10" r="10" fill="white"/>
<circle cx="570" cy="10" r="10" fill="white"/>
<circle cx="610" cy="10" r="10" fill="white"/>
<circle cx="509" cy="50" r="10" fill="white"/>
<circle cx="549" cy="50" r="10" fill="white"/>
<circle cx="589" cy="50" r="10" fill="white"/>
<circle cx="629" cy="50" r="10" fill="white"/>
<circle cx="10" cy="90" r="10" fill="white"/>
<circle cx="50" cy="90" r="10" fill="white"/>
<circle cx="90" cy="90" r="10" fill="white"/>
<circle cx="130" cy="90" r="10" fill="white"/>
<circle cx="29" cy="130" r="10" fill="white"/>
<circle cx="69" cy="130" r="10" fill="white"/>
<circle cx="109" cy="130" r="10" fill="white"/>
<circle cx="149" cy="130" r="10" fill="white"/>
<circle cx="170" cy="90" r="10" fill="white"/>
<circle cx="210" cy="90" r="10" fill="white"/>
<circle cx="250" cy="90" r="10" fill="white"/>
<circle cx="290" cy="90" r="10" fill="white"/>
<circle cx="189" cy="130" r="10" fill="white"/>
<circle cx="229" cy="130" r="10" fill="white"/>
<circle cx="269" cy="130" r="10" fill="white"/>
<circle cx="309" cy="130" r="10" fill="white"/>
<circle cx="330" cy="90" r="10" fill="white"/>
<circle cx="370" cy="90" r="10" fill="white"/>
<circle cx="410" cy="90" r="10" fill="white"/>
<circle cx="450" cy="90" r="10" fill="white"/>
<circle cx="349" cy="130" r="10" fill="white"/>
<circle cx="389" cy="130" r="10" fill="white"/>
<circle cx="429" cy="130" r="10" fill="white"/>
<circle cx="469" cy="130" r="10" fill="white"/>
<circle cx="490" cy="90" r="10" fill="white"/>
<circle cx="530" cy="90" r="10" fill="white"/>
<circle cx="570" cy="90" r="10" fill="white"/>
<circle cx="610" cy="90" r="10" fill="white"/>
<circle cx="509" cy="130" r="10" fill="white"/>
<circle cx="549" cy="130" r="10" fill="white"/>
<circle cx="589" cy="130" r="10" fill="white"/>
<circle cx="629" cy="130" r="10" fill="white"/>
<circle cx="650" cy="90" r="10" fill="white"/>
<circle cx="690" cy="90" r="10" fill="white"/>
<circle cx="730" cy="90" r="10" fill="white"/>
<circle cx="770" cy="90" r="10" fill="white"/>
<circle cx="669" cy="130" r="10" fill="white"/>
<circle cx="709" cy="130" r="10" fill="white"/>
<circle cx="749" cy="130" r="10" fill="white"/>
<circle cx="789" cy="130" r="10" fill="white"/>
<circle cx="10" cy="90" r="10" fill="white"/>
<circle cx="50" cy="90" r="10" fill="white"/>
<circle cx="90" cy="90" r="10" fill="white"/>
<circle cx="130" cy="90" r="10" fill="white"/>
<circle cx="29" cy="130" r="10" fill="white"/>
<circle cx="69" cy="130" r="10" fill="white"/>
<circle cx="109" cy="130" r="10" fill="white"/>
<circle cx="149" cy="130" r="10" fill="white"/>
<circle cx="170" cy="90" r="10" fill="white"/>
<circle cx="210" cy="90" r="10" fill="white"/>
<circle cx="250" cy="90" r="10" fill="white"/>
<circle cx="290" cy="90" r="10" fill="white"/>
<circle cx="189" cy="130" r="10" fill="white"/>
<circle cx="229" cy="130" r="10" fill="white"/>
<circle cx="269" cy="130" r="10" fill="white"/>
<circle cx="309" cy="130" r="10" fill="white"/>
<circle cx="330" cy="90" r="10" fill="white"/>
<circle cx="370" cy="90" r="10" fill="white"/>
<circle cx="410" cy="90" r="10" fill="white"/>
<circle cx="450" cy="90" r="10" fill="white"/>
<circle cx="349" cy="130" r="10" fill="white"/>
<circle cx="389" cy="130" r="10" fill="white"/>
<circle cx="429" cy="130" r="10" fill="white"/>
<circle cx="469" cy="130" r="10" fill="white"/>
<circle cx="490" cy="90" r="10" fill="white"/>
<circle cx="530" cy="90" r="10" fill="white"/>
<circle cx="570" cy="90" r="10" fill="white"/>
<circle cx="610" cy="90" r="10" fill="white"/>
<circle cx="509" cy="130" r="10" fill="white"/>
<circle cx="549" cy="130" r="10" fill="white"/>
<circle cx="589" cy="130" r="10" fill="white"/>
<circle cx="629" cy="130" r="10" fill="white"/>
<circle cx="10" cy="170" r="10" fill="white"/>
<circle cx="50" cy="170" r="10" fill="white"/>
<circle cx="90" cy="170" r="10" fill="white"/>
<circle cx="130" cy="170" r="10" fill="white"/>
<circle cx="29" cy="210" r="10" fill="white"/>
<circle cx="69" cy="210" r="10" fill="white"/>
<circle cx="109" cy="210" r="10" fill="white"/>
<circle cx="149" cy="210" r="10" fill="white"/>
<circle cx="170" cy="170" r="10" fill="white"/>
<circle cx="210" cy="170" r="10" fill="white"/>
<circle cx="250" cy="170" r="10" fill="white"/>
<circle cx="290" cy="170" r="10" fill="white"/>
<circle cx="189" cy="210" r="10" fill="white"/>
<circle cx="229" cy="210" r="10" fill="white"/>
<circle cx="269" cy="210" r="10" fill="white"/>
<circle cx="309" cy="210" r="10" fill="white"/>
<circle cx="330" cy="170" r="10" fill="white"/>
<circle cx="370" cy="170" r="10" fill="white"/>
<circle cx="410" cy="170" r="10" fill="white"/>
<circle cx="450" cy="170" r="10" fill="white"/>
<circle cx="349" cy="210" r="10" fill="white"/>
<circle cx="389" cy="210" r="10" fill="white"/>
<circle cx="429" cy="210" r="10" fill="white"/>
<circle cx="469" cy="210" r="10" fill="white"/>
<circle cx="490" cy="170" r="10" fill="white"/>
<circle cx="530" cy="170" r="10" fill="white"/>
<circle cx="570" cy="170" r="10" fill="white"/>
<circle cx="610" cy="170" r="10" fill="white"/>
<circle cx="509" cy="210" r="10" fill="white"/>
<circle cx="549" cy="210" r="10" fill="white"/>
<circle cx="589" cy="210" r="10" fill="white"/>
<circle cx="629" cy="210" r="10" fill="white"/>
<circle cx="650" cy="170" r="10" fill="white"/>
<circle cx="690" cy="170" r="10" fill="white"/>
<circle cx="730" cy="170" r="10" fill="white"/>
<circle cx="770" cy="170" r="10" fill="white"/>
<circle cx="669" cy="210" r="10" fill="white"/>
<circle cx="709" cy="210" r="10" fill="white"/>
<circle cx="749" cy="210" r="10" fill="white"/>
<circle cx="789" cy="210" r="10" fill="white"/>
<circle cx="10" cy="170" r="10" fill="white"/>
<circle cx="50" cy="170" r="10" fill="white"/>
<circle cx="90" cy="170" r="10" fill="white"/>
<circle cx="130" cy="170" r="10" fill="white"/>
<circle cx="29" cy="210" r="10" fill="white"/>
<circle cx="69" cy="210" r="10" fill="white"/>
<circle cx="109" cy="210" r="10" fill="white"/>
<circle cx="149" cy="210" r="10" fill="white"/>
<circle cx="170" cy="170" r="10" fill="white"/>
<circle cx="210" cy="170" r="10" fill="white"/>
<circle cx="250" cy="170" r="10" fill="white"/>
<circle cx="290" cy="170" r="10" fill="white"/>
<circle cx="189" cy="210" r="10" fill="white"/>
<circle cx="229" cy="210" r="10" fill="white"/>
<circle cx="269" cy="210" r="10" fill="white"/>
<circle cx="309" cy="210" r="10" fill="white"/>
<circle cx="330" cy="170" r="10" fill="white"/>
<circle cx="370" cy="170" r="10" fill="white"/>
<circle cx="410" cy="170" r="10" fill="white"/>
<circle cx="450" cy="170" r="10" fill="white"/>
<circle cx="349" cy="210" r="10" fill="white"/>
<circle cx="389" cy="210" r="10" fill="white"/>
<circle cx="429" cy="210" r="10" fill="white"/>
<circle cx="469" cy="210" r="10" fill="white"/>
<circle cx="490" cy="170" r="10" fill="white"/>
<circle cx="530" cy="170" r="10" fill="white"/>
<circle cx="570" cy="170" r="10" fill="white"/>
<circle cx="610" cy="170" r="10" fill="white"/>
<circle cx="509" cy="210" r="10" fill="white"/>
<circle cx="549" cy="210" r="10" fill="white"/>
<circle cx="589" cy="210" r="10" fill="white"/>
<circle cx="629" cy="210" r="10" fill="white"/>
<circle cx="10" cy="250" r="10" fill="white"/>
<circle cx="50" cy="250" r="10" fill="white"/>
<circle cx="90" cy="250" r="10" fill="white"/>
<circle cx="130" cy="250" r="10" fill="white"/>
<circle cx="29" cy="290" r="10" fill="white"/>
<circle cx="69" cy="290" r="10" fill="white"/>
<circle cx="109" cy="290" r="10" fill="white"/>
<circle cx="149" cy="290" r="10" fill="white"/>
<circle cx="170" cy="250" r="10" fill="white"/>
<circle cx="210" cy="250" r="10" fill="white"/>
<circle cx="250" cy="250" r="10" fill="white"/>
<circle cx="290" cy="250" r="10" fill="white"/>
<circle cx="189" cy="290" r="10" fill="white"/>
<circle cx="229" cy="290" r="10" fill="white"/>
<circle cx="269" cy="290" r="10" fill="white"/>
<circle cx="309" cy="290" r="10" fill="white"/>
<circle cx="330" cy="250" r="10" fill="white"/>
<circle cx="370" cy="250" r="10" fill="white"/>
<circle cx="410" cy="250" r="10" fill="white"/>
<circle cx="450" cy="250" r="10" fill="white"/>
<circle cx="349" cy="290" r="10" fill="white"/>
<circle cx="389" cy="290" r="10" fill="white"/>
<circle cx="429" cy="290" r="10" fill="white"/>
<circle cx="469" cy="290" r="10" fill="white"/>
<circle cx="490" cy="250" r="10" fill="white"/>
<circle cx="530" cy="250" r="10" fill="white"/>
<circle cx="570" cy="250" r="10" fill="white"/>
<circle cx="610" cy="250" r="10" fill="white"/>
<circle cx="509" cy="290" r="10" fill="white"/>
<circle cx="549" cy="290" r="10" fill="white"/>
<circle cx="589" cy="290" r="10" fill="white"/>
<circle cx="629" cy="290" r="10" fill="white"/>
<circle cx="650" cy="250" r="10" fill="white"/>
<circle cx="690" cy="250" r="10" fill="white"/>
<circle cx="730" cy="250" r="10" fill="white"/>
<circle cx="770" cy="250" r="10" fill="white"/>
<circle cx="669" cy="290" r="10" fill="white"/>
<circle cx="709" cy="290" r="10" fill="white"/>
<circle cx="749" cy="290" r="10" fill="white"/>
<circle cx="789" cy="290" r="10" fill="white"/>
<circle cx="10" cy="250" r="10" fill="white"/>
<circle cx="50" cy="250" r="10" fill="white"/>
<circle cx="90" cy="250" r="10" fill="white"/>
<circle cx="130" cy="250" r="10" fill="white"/>
<circle cx="29" cy="290" r="10" fill="white"/>
<circle cx="69" cy="290" r="10" fill="white"/>
<circle cx="109" cy="290" r="10" fill="white"/>
<circle cx="149" cy="290" r="10" fill="white"/>
<circle cx="170" cy="250" r="10" fill="white"/>
<circle cx="210" cy="250" r="10" fill="white"/>
<circle cx="250" cy="250" r="10" fill="white"/>
<circle cx="290" cy="250" r="10" fill="white"/>
<circle cx="189" cy="290" r="10" fill="white"/>
<circle cx="229" cy="290" r="10" fill="white"/>
<circle cx="269" cy="290" r="10" fill="white"/>
<circle cx="309" cy="290" r="10" fill="white"/>
<circle cx="330" cy="250" r="10" fill="white"/>
<circle cx="370" cy="250" r="10" fill="white"/>
<circle cx="410" cy="250" r="10" fill="white"/>
<circle cx="450" cy="250" r="10" fill="white"/>
<circle cx="349" cy="290" r="10" fill="white"/>
<circle cx="389" cy="290" r="10" fill="white"/>
<circle cx="429" cy="290" r="10" fill="white"/>
<circle cx="469" cy="290" r="10" fill="white"/>
<circle cx="490" cy="250" r="10" fill="white"/>
<circle cx="530" cy="250" r="10" fill="white"/>
<circle cx="570" cy="250" r="10" fill="white"/>
<circle cx="610" cy="250" r="10" fill="white"/>
<circle cx="509" cy="290" r="10" fill="white"/>
<circle cx="549" cy="290" r="10" fill="white"/>
<circle cx="589" cy="290" r="10" fill="white"/>
<circle cx="629" cy="290" r="10" fill="white"/>
<circle cx="10" cy="330" r="10" fill="white"/>
<circle cx="50" cy="330" r="10" fill="white"/>
<circle cx="90" cy="330" r="10" fill="white"/>
<circle cx="130" cy="330" r="10" fill="white"/>
<circle cx="29" cy="370" r="10" fill="white"/>
<circle cx="69" cy="370" r="10" fill="white"/>
<circle cx="109" cy="370" r="10" fill="white"/>
<circle cx="149" cy="370" r="10" fill="white"/>
<circle cx="170" cy="330" r="10" fill="white"/>
<circle cx="210" cy="330" r="10" fill="white"/>
<circle cx="250" cy="330" r="10" fill="white"/>
<circle cx="290" cy="330" r="10" fill="white"/>
<circle cx="189" cy="370" r="10" fill="white"/>
<circle cx="229" cy="370" r="10" fill="white"/>
<circle cx="269" cy="370" r="10" fill="white"/>
<circle cx="309" cy="370" r="10" fill="white"/>
<circle cx="330" cy="330" r="10" fill="white"/>
<circle cx="370" cy="330" r="10" fill="white"/>
<circle cx="410" cy="330" r="10" fill="white"/>
<circle cx="450" cy="330" r="10" fill="white"/>
<circle cx="349" cy="370" r="10" fill="white"/>
<circle cx="389" cy="370" r="10" fill="white"/>
<circle cx="429" cy="370" r="10" fill="white"/>
<circle cx="469" cy="370" r="10" fill="white"/>
<circle cx="490" cy="330" r="10" fill="white"/>
<circle cx="530" cy="330" r="10" fill="white"/>
<circle cx="570" cy="330" r="10" fill="white"/>
<circle cx="610" cy="330" r="10" fill="white"/>
<circle cx="509" cy="370" r="10" fill="white"/>
<circle cx="549" cy="370" r="10" fill="white"/>
<circle cx="589" cy="370" r="10" fill="white"/>
<circle cx="629" cy="370" r="10" fill="white"/>
<circle cx="650" cy="330" r="10" fill="white"/>
<circle cx="690" cy="330" r="10" fill="white"/>
<circle cx="730" cy="330" r="10" fill="white"/>
<circle cx="770" cy="330" r="10" fill="white"/>
<circle cx="669" cy="370" r="10" fill="white"/>
<circle cx="709" cy="370" r="10" fill="white"/>
<circle cx="749" cy="370" r="10" fill="white"/>
<circle cx="789" cy="370" r="10" fill="white"/>
<circle cx="810" cy="10" r="10" fill="white"/>
<circle cx="850" cy="10" r="10" fill="white"/>
<circle cx="890" cy="10" r="10" fill="white"/>
<circle cx="930" cy="10" r="10" fill="white"/>
<circle cx="829" cy="50" r="10" fill="white"/>
<circle cx="869" cy="50" r="10" fill="white"/>
<circle cx="909" cy="50" r="10" fill="white"/>
<circle cx="949" cy="50" r="10" fill="white"/>
<circle cx="810" cy="90" r="10" fill="white"/>
<circle cx="850" cy="90" r="10" fill="white"/>
<circle cx="890" cy="90" r="10" fill="white"/>
<circle cx="930" cy="90" r="10" fill="white"/>
<circle cx="829" cy="130" r="10" fill="white"/>
<circle cx="869" cy="130" r="10" fill="white"/>
<circle cx="909" cy="130" r="10" fill="white"/>
<circle cx="949" cy="130" r="10" fill="white"/>
<circle cx="810" cy="170" r="10" fill="white"/>
<circle cx="850" cy="170" r="10" fill="white"/>
<circle cx="890" cy="170" r="10" fill="white"/>
<circle cx="930" cy="170" r="10" fill="white"/>
<circle cx="829" cy="210" r="10" fill="white"/>
<circle cx="869" cy="210" r="10" fill="white"/>
<circle cx="909" cy="210" r="10" fill="white"/>
<circle cx="949" cy="210" r="10" fill="white"/>
<circle cx="810" cy="250" r="10" fill="white"/>
<circle cx="850" cy="250" r="10" fill="white"/>
<circle cx="890" cy="250" r="10" fill="white"/>
<circle cx="930" cy="250" r="10" fill="white"/>
<circle cx="829" cy="290" r="10" fill="white"/>
<circle cx="869" cy="290" r="10" fill="white"/>
<circle cx="909" cy="290" r="10" fill="white"/>
<circle cx="949" cy="290" r="10" fill="white"/>
<circle cx="810" cy="330" r="10" fill="white"/>
<circle cx="850" cy="330" r="10" fill="white"/>
<circle cx="890" cy="330" r="10" fill="white"/>
<circle cx="930" cy="330" r="10" fill="white"/>
<circle cx="829" cy="370" r="10" fill="white"/>
<circle cx="869" cy="370" r="10" fill="white"/>
<circle cx="909" cy="370" r="10" fill="white"/>
<circle cx="949" cy="370" r="10" fill="white"/>
<circle cx="970" cy="10" r="10" fill="white"/>
<circle cx="1010" cy="10" r="10" fill="white"/>
<circle cx="1050" cy="10" r="10" fill="white"/>
<circle cx="1090" cy="10" r="10" fill="white"/>
<circle cx="989" cy="50" r="10" fill="white"/>
<circle cx="1029" cy="50" r="10" fill="white"/>
<circle cx="1069" cy="50" r="10" fill="white"/>
<circle cx="1109" cy="50" r="10" fill="white"/>
<circle cx="970" cy="90" r="10" fill="white"/>
<circle cx="1010" cy="90" r="10" fill="white"/>
<circle cx="1050" cy="90" r="10" fill="white"/>
<circle cx="1090" cy="90" r="10" fill="white"/>
<circle cx="989" cy="130" r="10" fill="white"/>
<circle cx="1029" cy="130" r="10" fill="white"/>
<circle cx="1069" cy="130" r="10" fill="white"/>
<circle cx="1109" cy="130" r="10" fill="white"/>
<circle cx="970" cy="170" r="10" fill="white"/>
<circle cx="1010" cy="170" r="10" fill="white"/>
<circle cx="1050" cy="170" r="10" fill="white"/>
<circle cx="1090" cy="170" r="10" fill="white"/>
<circle cx="989" cy="210" r="10" fill="white"/>
<circle cx="1029" cy="210" r="10" fill="white"/>
<circle cx="1069" cy="210" r="10" fill="white"/>
<circle cx="1109" cy="210" r="10" fill="white"/>
<circle cx="970" cy="250" r="10" fill="white"/>
<circle cx="1010" cy="250" r="10" fill="white"/>
<circle cx="1050" cy="250" r="10" fill="white"/>
<circle cx="1090" cy="250" r="10" fill="white"/>
<circle cx="989" cy="290" r="10" fill="white"/>
<circle cx="1029" cy="290" r="10" fill="white"/>
<circle cx="1069" cy="290" r="10" fill="white"/>
<circle cx="1109" cy="290" r="10" fill="white"/>
<circle cx="970" cy="330" r="10" fill="white"/>
<circle cx="1010" cy="330" r="10" fill="white"/>
<circle cx="1050" cy="330" r="10" fill="white"/>
<circle cx="1090" cy="330" r="10" fill="white"/>
<circle cx="989" cy="370" r="10" fill="white"/>
<circle cx="1029" cy="370" r="10" fill="white"/>
<circle cx="1069" cy="370" r="10" fill="white"/>
<circle cx="1109" cy="370" r="10" fill="white"/>
<circle cx="10" cy="330" r="10" fill="white"/>
<circle cx="50" cy="330" r="10" fill="white"/>
<circle cx="90" cy="330" r="10" fill="white"/>
<circle cx="130" cy="330" r="10" fill="white"/>
<circle cx="29" cy="370" r="10" fill="white"/>
<circle cx="69" cy="370" r="10" fill="white"/>
<circle cx="109" cy="370" r="10" fill="white"/>
<circle cx="149" cy="370" r="10" fill="white"/>
<circle cx="170" cy="330" r="10" fill="white"/>
<circle cx="210" cy="330" r="10" fill="white"/>
<circle cx="250" cy="330" r="10" fill="white"/>
<circle cx="290" cy="330" r="10" fill="white"/>
<circle cx="189" cy="370" r="10" fill="white"/>
<circle cx="229" cy="370" r="10" fill="white"/>
<circle cx="269" cy="370" r="10" fill="white"/>
<circle cx="309" cy="370" r="10" fill="white"/>
<circle cx="330" cy="330" r="10" fill="white"/>
<circle cx="370" cy="330" r="10" fill="white"/>
<circle cx="410" cy="330" r="10" fill="white"/>
<circle cx="450" cy="330" r="10" fill="white"/>
<circle cx="349" cy="370" r="10" fill="white"/>
<circle cx="389" cy="370" r="10" fill="white"/>
<circle cx="429" cy="370" r="10" fill="white"/>
<circle cx="469" cy="370" r="10" fill="white"/>
<circle cx="490" cy="330" r="10" fill="white"/>
<circle cx="530" cy="330" r="10" fill="white"/>
<circle cx="570" cy="330" r="10" fill="white"/>
<circle cx="610" cy="330" r="10" fill="white"/>
<circle cx="509" cy="370" r="10" fill="white"/>
<circle cx="549" cy="370" r="10" fill="white"/>
<circle cx="589" cy="370" r="10" fill="white"/>
<circle cx="629" cy="370" r="10" fill="white"/>
</svg>
